<svg width="24" height="24" viewBox="0 0 24 24" fill="none" xmlns="http://www.w3.org/2000/svg">
<path fill-rule="evenodd" clip-rule="evenodd" d="M16.8625 7.01416C16.7244 6.87597 16.5369 6.79834 16.3415 6.79834L8.89828 6.79834C8.49133 6.79834 8.16144 7.12824 8.16144 7.53518C8.16144 7.94213 8.49133 8.27203 8.89828 8.27203L14.5626 8.27202L7.13672 15.6979C6.84896 15.9857 6.84896 16.4522 7.13671 16.74C7.42447 17.0277 7.89101 17.0277 8.17877 16.74L15.6047 9.31408L15.6047 14.9784C15.6047 15.3854 15.9346 15.7153 16.3415 15.7153C16.7485 15.7153 17.0784 15.3854 17.0784 14.9784L17.0784 7.53518C17.0784 7.33976 17.0007 7.15234 16.8625 7.01416Z" fill="#4328B7"/>
</svg>
