<svg width="12" height="11" viewBox="0 0 12 11" fill="none" xmlns="http://www.w3.org/2000/svg">
<path fill-rule="evenodd" clip-rule="evenodd" d="M11.731 5.89771C11.731 6.06056 11.6663 6.21674 11.5511 6.33189L7.16516 10.7179C6.92536 10.9577 6.53658 10.9577 6.29678 10.7179C6.05699 10.4781 6.05699 10.0893 6.29678 9.84948L9.63453 6.51174L0.883017 6.51174C0.543894 6.51174 0.268982 6.23683 0.268982 5.8977C0.268982 5.55858 0.543894 5.28367 0.883017 5.28367L9.63453 5.28367L6.29678 1.94593C6.05699 1.70613 6.05699 1.31735 6.29678 1.07755C6.53658 0.837756 6.92537 0.837756 7.16516 1.07755L11.5511 5.46352C11.6663 5.57867 11.731 5.73485 11.731 5.89771Z" fill="#1B1B1B"/>
</svg>
