<svg width="20" height="20" viewBox="0 0 20 20" fill="none" xmlns="http://www.w3.org/2000/svg">
<path fill-rule="evenodd" clip-rule="evenodd" d="M4.31755 15.6313C3.92702 15.2408 3.89185 14.6428 4.23898 14.2957L8.56024 9.9744L4.23909 5.65324C3.89195 5.30611 3.92713 4.70812 4.31765 4.31759C4.70818 3.92707 5.30617 3.89189 5.6533 4.23903L9.97445 8.56018L14.2956 4.23903C14.6427 3.89189 15.2407 3.92707 15.6313 4.31759C16.0218 4.70812 16.057 5.30611 15.7098 5.65324L11.3887 9.97439L15.7099 14.2957C16.0571 14.6428 16.0219 15.2408 15.6314 15.6313C15.2408 16.0218 14.6428 16.057 14.2957 15.7099L9.97445 11.3886L5.65319 15.7099C5.30606 16.057 4.70807 16.0218 4.31755 15.6313Z" fill="#1B1B1B"/>
</svg>
