<svg width="48" height="48" viewBox="0 0 48 48" fill="none" xmlns="http://www.w3.org/2000/svg">
<rect x="0.5" y="0.5" width="47" height="47" rx="23.5" stroke="#E2E2E2"/>
<path fill-rule="evenodd" clip-rule="evenodd" d="M29.2042 17.4524L20.4289 17.4524C19.6396 17.4524 18.8826 17.766 18.3244 18.3241C17.7663 18.8823 17.4527 19.6393 17.4527 20.4286L17.4527 29.2039C16.9308 29.0187 16.4791 28.6766 16.1594 28.2244C15.8396 27.7723 15.6677 27.2323 15.667 26.6786L15.667 18.3453C15.667 17.6349 15.9492 16.9536 16.4515 16.4512C16.9539 15.9489 17.6352 15.6667 18.3456 15.6667L26.6789 15.6667C27.2326 15.6674 27.7726 15.8393 28.2247 16.1591C28.6769 16.4788 29.019 16.9305 29.2042 17.4524ZM21.3218 32.3334H29.6551C30.3655 32.3334 31.0468 32.0511 31.5491 31.5488C32.0515 31.0465 32.3337 30.3652 32.3337 29.6548V21.3214C32.3337 20.611 32.0515 19.9297 31.5491 19.4274C31.0468 18.9251 30.3655 18.6429 29.6551 18.6429L21.3218 18.6429C20.6114 18.6429 19.93 18.9251 19.4277 19.4274C18.9254 19.9297 18.6432 20.611 18.6432 21.3214L18.6432 29.6548C18.6432 30.3652 18.9254 31.0465 19.4277 31.5488C19.93 32.0511 20.6114 32.3334 21.3218 32.3334Z" fill="black"/>
</svg>
