<svg width="80" height="80" viewBox="0 0 80 80" fill="none" xmlns="http://www.w3.org/2000/svg">
<rect x="0.5" y="0.5" width="79" height="79" rx="39.5" stroke="#E2E2E2"/>
<path fill-rule="evenodd" clip-rule="evenodd" d="M26.875 38.125C26.875 35.5362 26.875 37.6562 26.875 36.25H53.125C53.125 38.5938 53.125 35.5362 53.125 38.125V39.0625C53.125 40.6158 51.8658 41.875 50.3125 41.875H45.3033C44.5574 41.875 43.842 42.1713 43.3145 42.6988L40.6991 45.3142C39.8431 46.1703 39.6309 47.478 40.1723 48.5608L40.8385 49.8932C40.9838 50.1839 40.9683 50.529 40.7974 50.8053C40.6266 51.0817 40.3249 51.25 40 51.25H31.5625C28.9737 51.25 26.875 49.1513 26.875 46.5625V38.125Z" fill="#4328B7"/>
<path fill-rule="evenodd" clip-rule="evenodd" d="M46.1072 49.6302C46.4623 50.0069 46.4623 50.6178 46.1072 50.9945C45.752 51.3712 45.1761 51.3712 44.8209 50.9945L42.1692 48.182C41.8141 47.8053 41.8141 47.1944 42.1692 46.8177L44.8209 44.0052C45.1761 43.6285 45.752 43.6285 46.1071 44.0052C46.4623 44.3819 46.4623 44.9928 46.1072 45.3695L44.0986 47.4999L46.1072 49.6302ZM48.5709 45.3695C48.2157 44.9928 48.2157 44.382 48.5709 44.0052C48.9261 43.6286 49.502 43.6286 49.8572 44.0052L52.5088 46.8177C52.8639 47.1945 52.8639 47.8053 52.5088 48.182L49.8572 50.9945C49.502 51.3713 48.9261 51.3713 48.5709 50.9945C48.2157 50.6178 48.2157 50.0069 48.5709 49.6302L50.5794 47.4999L48.5709 45.3695Z" fill="#C47BFF"/>
<path fill-rule="evenodd" clip-rule="evenodd" d="M31.5625 28.75C28.9737 28.75 26.875 30.8487 26.875 33.4375V34.375H53.125V33.4375C53.125 30.8487 51.0263 28.75 48.4375 28.75H31.5625ZM30.625 32.5C31.1428 32.5 31.5625 32.0803 31.5625 31.5625C31.5625 31.0447 31.1428 30.625 30.625 30.625C30.1072 30.625 29.6875 31.0447 29.6875 31.5625C29.6875 32.0803 30.1072 32.5 30.625 32.5ZM33.4375 32.5C33.9553 32.5 34.375 32.0803 34.375 31.5625C34.375 31.0447 33.9553 30.625 33.4375 30.625C32.9197 30.625 32.5 31.0447 32.5 31.5625C32.5 32.0803 32.9197 32.5 33.4375 32.5ZM37.1875 31.5625C37.1875 32.0803 36.7678 32.5 36.25 32.5C35.7322 32.5 35.3125 32.0803 35.3125 31.5625C35.3125 31.0447 35.7322 30.625 36.25 30.625C36.7678 30.625 37.1875 31.0447 37.1875 31.5625Z" fill="#4328B7"/>
</svg>
