<svg width="80" height="80" viewBox="0 0 80 80" fill="none" xmlns="http://www.w3.org/2000/svg">
<path d="M0.5 0.5H79.5V48C79.5 65.397 65.397 79.5 48 79.5H0.5V0.5Z" stroke="#E2E2E2"/>
<path d="M36.75 33.5H34.5833C33.985 33.5 33.5 33.985 33.5 34.5833V36.75C33.5 37.3483 33.985 37.8333 34.5833 37.8333H36.75C37.3483 37.8333 37.8333 37.3483 37.8333 36.75V34.5833C37.8333 33.985 37.3483 33.5 36.75 33.5Z" fill="#C47BFF"/>
<path d="M45.1024 52.6858C45.0017 52.7873 44.8819 52.8679 44.7499 52.9229C44.6179 52.9779 44.4763 53.0062 44.3332 53.0062C44.1902 53.0062 44.0486 52.9779 43.9166 52.9229C43.7846 52.8679 43.6648 52.7873 43.5641 52.6858L39.9999 49.1108L36.4357 52.6858C36.335 52.7873 36.2152 52.8679 36.0832 52.9229C35.9512 52.9779 35.8096 53.0062 35.6666 53.0062C35.5236 53.0062 35.382 52.9779 35.25 52.9229C35.1179 52.8679 34.9981 52.7873 34.8974 52.6858C34.7959 52.5851 34.7153 52.4653 34.6603 52.3333C34.6053 52.2012 34.577 52.0596 34.577 51.9166C34.577 51.7736 34.6053 51.632 34.6603 51.5C34.7153 51.368 34.7959 51.2482 34.8974 51.1475L37.3782 48.6666H42.6216L45.1024 51.1475C45.204 51.2482 45.2845 51.368 45.3395 51.5C45.3945 51.632 45.4229 51.7736 45.4229 51.9166C45.4229 52.0596 45.3945 52.2012 45.3395 52.3333C45.2845 52.4653 45.204 52.5851 45.1024 52.6858Z" fill="#C47BFF"/>
<path d="M47.5833 27H32.4167C30.9801 27 29.6023 27.5707 28.5865 28.5865C27.5707 29.6023 27 30.9801 27 32.4167V43.25C27 43.9613 27.1401 44.6657 27.4123 45.3229C27.6845 45.98 28.0835 46.5772 28.5865 47.0802C29.6023 48.096 30.9801 48.6667 32.4167 48.6667H47.5833C48.2947 48.6667 48.999 48.5266 49.6562 48.2543C50.3134 47.9821 50.9105 47.5831 51.4135 47.0802C51.9165 46.5772 52.3155 45.98 52.5877 45.3229C52.8599 44.6657 53 43.9613 53 43.25V32.4167C53 30.9801 52.4293 29.6023 51.4135 28.5865C50.3977 27.5707 49.0199 27 47.5833 27ZM31.3333 34.5833C31.3333 33.7214 31.6757 32.8947 32.2852 32.2852C32.8947 31.6757 33.7214 31.3333 34.5833 31.3333H36.75C37.612 31.3333 38.4386 31.6757 39.0481 32.2852C39.6576 32.8947 40 33.7214 40 34.5833V36.75C40 37.612 39.6576 38.4386 39.0481 39.0481C38.4386 39.6576 37.612 40 36.75 40H34.5833C33.7214 40 32.8947 39.6576 32.2852 39.0481C31.6757 38.4386 31.3333 37.612 31.3333 36.75V34.5833ZM47.5833 44.3333H32.4167C32.1293 44.3333 31.8538 44.2192 31.6506 44.016C31.4475 43.8129 31.3333 43.5373 31.3333 43.25C31.3333 42.9627 31.4475 42.6871 31.6506 42.484C31.8538 42.2808 32.1293 42.1667 32.4167 42.1667H47.5833C47.8707 42.1667 48.1462 42.2808 48.3494 42.484C48.5525 42.6871 48.6667 42.9627 48.6667 43.25C48.6667 43.5373 48.5525 43.8129 48.3494 44.016C48.1462 44.2192 47.8707 44.3333 47.5833 44.3333ZM47.5833 38.9167H43.25C42.9627 38.9167 42.6871 38.8025 42.484 38.5994C42.2808 38.3962 42.1667 38.1207 42.1667 37.8333C42.1667 37.546 42.2808 37.2705 42.484 37.0673C42.6871 36.8641 42.9627 36.75 43.25 36.75H47.5833C47.8707 36.75 48.1462 36.8641 48.3494 37.0673C48.5525 37.2705 48.6667 37.546 48.6667 37.8333C48.6667 38.1207 48.5525 38.3962 48.3494 38.5994C48.1462 38.8025 47.8707 38.9167 47.5833 38.9167ZM47.5833 34.5833H43.25C42.9627 34.5833 42.6871 34.4692 42.484 34.266C42.2808 34.0629 42.1667 33.7873 42.1667 33.5C42.1667 33.2127 42.2808 32.9371 42.484 32.734C42.6871 32.5308 42.9627 32.4167 43.25 32.4167H47.5833C47.8707 32.4167 48.1462 32.5308 48.3494 32.734C48.5525 32.9371 48.6667 33.2127 48.6667 33.5C48.6667 33.7873 48.5525 34.0629 48.3494 34.266C48.1462 34.4692 47.8707 34.5833 47.5833 34.5833Z" fill="#4328B7"/>
</svg>
