<svg width="80" height="80" viewBox="0 0 80 80" fill="none" xmlns="http://www.w3.org/2000/svg">
<path d="M0.5 32C0.5 14.603 14.603 0.5 32 0.5H79.5V48C79.5 65.397 65.397 79.5 48 79.5H0.5V32Z" stroke="#E2E2E2"/>
<path d="M37.2142 45.5701C37.2142 44.5444 36.3828 43.713 35.3571 43.713C34.3314 43.713 33.4999 44.5444 33.4999 45.5701C33.4999 46.5958 34.3314 47.4272 35.3571 47.4272C36.3828 47.4272 37.2142 46.5958 37.2142 45.5701Z" fill="#C47BFF"/>
<path d="M27 33.5L27 46.5C27 48.2239 27.6848 49.8772 28.9038 51.0962C30.1228 52.3152 31.7761 53 33.5 53L46.5 53C48.2239 53 49.8772 52.3152 51.0962 51.0962C52.3152 49.8772 53 48.2239 53 46.5L53 33.5C53 31.7761 52.3152 30.1228 51.0962 28.9038C49.8772 27.6848 48.2239 27 46.5 27L33.5 27C31.7761 27 30.1228 27.6848 28.9038 28.9038C27.6848 30.1228 27 31.7761 27 33.5ZM31.6429 38.1429L31.6429 35.3571C31.6647 34.7233 31.9369 34.124 32.3999 33.6905C32.863 33.2571 33.4789 33.025 34.1129 33.045L35.7193 33.045C35.6185 32.8552 35.5867 32.6364 35.6292 32.4258C35.6717 32.2152 35.786 32.0258 35.9524 31.89C36.1189 31.7542 36.3274 31.6803 36.5422 31.681C36.7571 31.6816 36.965 31.7568 37.1307 31.8936L38.765 33.3607C38.8623 33.4478 38.9401 33.5544 38.9933 33.6736C39.0466 33.7928 39.0742 33.9219 39.0742 34.0525C39.0742 34.1831 39.0466 34.3122 38.9933 34.4314C38.9401 34.5506 38.8623 34.6572 38.765 34.7443L37.1307 36.2207C36.9471 36.3842 36.7061 36.4681 36.4607 36.4542C36.2153 36.4403 35.9854 36.3296 35.8214 36.1464C35.6674 35.9758 35.5822 35.7541 35.5822 35.5243C35.5822 35.2944 35.6674 35.0728 35.8214 34.9021L34.1129 34.9021C33.7786 34.9021 33.5 35.1064 33.5 35.3571L33.5 38.1429C33.5 38.3891 33.4022 38.6253 33.228 38.7995C33.0539 38.9736 32.8177 39.0714 32.5714 39.0714C32.3252 39.0714 32.089 38.9736 31.9148 38.7995C31.7407 38.6253 31.6429 38.3891 31.6429 38.1429ZM31.6429 45.5714C31.6429 44.8368 31.8607 44.1187 32.2688 43.5079C32.677 42.8971 33.257 42.421 33.9357 42.1399C34.6144 41.8588 35.3613 41.7852 36.0818 41.9285C36.8023 42.0718 37.4641 42.4256 37.9835 42.945C38.503 43.4645 38.8567 44.1263 39.0001 44.8468C39.1434 45.5673 39.0698 46.3141 38.7887 46.9928C38.5076 47.6715 38.0315 48.2516 37.4207 48.6597C36.8099 49.0679 36.0918 49.2857 35.3571 49.2857C34.3721 49.2857 33.4273 48.8944 32.7307 48.1978C32.0342 47.5013 31.6429 46.5565 31.6429 45.5714ZM48.3571 41.8571L48.3571 44.6429C48.3353 45.2767 48.0631 45.876 47.6001 46.3095C47.137 46.7429 46.5211 46.975 45.8871 46.955L44.2807 46.955C44.3815 47.1448 44.4133 47.3636 44.3708 47.5742C44.3283 47.7848 44.214 47.9742 44.0475 48.11C43.8811 48.2458 43.6726 48.3197 43.4578 48.319C43.2429 48.3184 43.0349 48.2432 42.8693 48.1064L41.235 46.6393C41.1377 46.5522 41.0599 46.4456 41.0066 46.3264C40.9534 46.2072 40.9258 46.0781 40.9258 45.9475C40.9258 45.8169 40.9534 45.6878 41.0066 45.5686C41.0599 45.4494 41.1377 45.3428 41.235 45.2557L42.8693 43.7793C43.0031 43.6585 43.1691 43.5793 43.3471 43.5513C43.5251 43.5233 43.7075 43.5477 43.8719 43.6215C44.0363 43.6954 44.1756 43.8154 44.273 43.9671C44.3703 44.1188 44.4214 44.2955 44.42 44.4757C44.4143 44.7083 44.3216 44.9304 44.16 45.0979L45.8871 45.0979C46.2214 45.0979 46.5 44.8936 46.5 44.6429L46.5 41.8571C46.5 41.6109 46.5978 41.3747 46.772 41.2005C46.9461 41.0264 47.1823 40.9286 47.4286 40.9286C47.6748 40.9286 47.911 41.0264 48.0852 41.2005C48.2593 41.3747 48.3571 41.6109 48.3571 41.8571ZM46.7693 31.9121C46.8556 31.8251 46.9583 31.756 47.0715 31.7089C47.1846 31.6617 47.306 31.6375 47.4286 31.6375C47.5512 31.6375 47.6725 31.6617 47.7857 31.7089C47.8988 31.756 48.0015 31.8251 48.0879 31.9121C48.1749 31.9985 48.244 32.1012 48.2911 32.2143C48.3383 32.3275 48.3625 32.4488 48.3625 32.5714C48.3625 32.694 48.3383 32.8154 48.2911 32.9285C48.244 33.0417 48.1749 33.1444 48.0879 33.2307L45.9521 35.3571L48.0879 37.4836C48.1749 37.5699 48.244 37.6726 48.2911 37.7858C48.3383 37.8989 48.3625 38.0203 48.3625 38.1429C48.3625 38.2654 48.3383 38.3868 48.2911 38.5C48.244 38.6131 48.1749 38.7158 48.0879 38.8021C48.0015 38.8892 47.8988 38.9583 47.7857 39.0054C47.6725 39.0525 47.5512 39.0768 47.4286 39.0768C47.306 39.0768 47.1846 39.0525 47.0715 39.0054C46.9583 38.9583 46.8556 38.8892 46.7693 38.8021L44.6429 36.6664L42.5164 38.8021C42.4298 38.8887 42.3271 38.9574 42.2139 39.0043C42.1008 39.0511 41.9796 39.0752 41.8571 39.0752C41.7347 39.0752 41.6135 39.0511 41.5003 39.0043C41.3872 38.9574 41.2844 38.8887 41.1979 38.8021C41.1113 38.7156 41.0426 38.6128 40.9957 38.4997C40.9489 38.3865 40.9248 38.2653 40.9248 38.1429C40.9248 38.0204 40.9489 37.8992 40.9957 37.7861C41.0426 37.6729 41.1113 37.5702 41.1979 37.4836L43.3336 35.3571L41.1979 33.2307C41.1113 33.1441 41.0426 33.0414 40.9957 32.9282C40.9489 32.8151 40.9248 32.6939 40.9248 32.5714C40.9248 32.449 40.9489 32.3277 40.9957 32.2146C41.0426 32.1015 41.1113 31.9987 41.1979 31.9121C41.2844 31.8256 41.3872 31.7569 41.5003 31.71C41.6135 31.6632 41.7347 31.6391 41.8571 31.6391C41.9796 31.6391 42.1008 31.6632 42.2139 31.71C42.3271 31.7569 42.4298 31.8256 42.5164 31.9121L44.6429 34.0479L46.7693 31.9121Z" fill="#4328B7"/>
</svg>
