<svg width="80" height="80" viewBox="0 0 80 80" fill="none" xmlns="http://www.w3.org/2000/svg">
<path d="M0.5 32C0.5 14.603 14.603 0.5 32 0.5H48C65.397 0.5 79.5 14.603 79.5 32V79.5H0.5V32Z" stroke="#E2E2E2"/>
<path d="M42.7432 27.7715L37.2575 27.7715C36.5301 27.7715 35.8324 28.0605 35.318 28.5748C34.8036 29.0892 34.5146 29.7869 34.5146 30.5143C34.5146 31.2418 34.8036 31.9394 35.318 32.4538C35.8324 32.9682 36.5301 33.2572 37.2575 33.2572L42.7432 33.2572C43.4707 33.2572 44.1683 32.9682 44.6827 32.4538C45.1971 31.9394 45.4861 31.2418 45.4861 30.5143C45.4861 29.7869 45.1971 29.0892 44.6827 28.5748C44.1683 28.0605 43.4707 27.7715 42.7432 27.7715Z" fill="#C47BFF"/>
<path d="M47.2322 29.6824C47.2827 29.9569 47.3102 30.2352 47.3145 30.5144C47.3145 31.1147 47.1963 31.7092 46.9665 32.2638C46.7368 32.8184 46.4001 33.3224 45.9756 33.7469C45.5511 34.1714 45.0471 34.5081 44.4925 34.7378C43.9379 34.9676 43.3434 35.0858 42.7431 35.0858L37.2574 35.0858C36.045 35.0858 34.8822 34.6042 34.0249 33.7469C33.1676 32.8896 32.686 31.7268 32.686 30.5144C32.6902 30.2352 32.7178 29.9569 32.7682 29.6824C31.719 29.8766 30.7707 30.4317 30.0878 31.2516C29.4048 32.0715 29.0302 33.1044 29.0288 34.1715L29.0288 48.8001C29.0288 50.0125 29.5104 51.1753 30.3677 52.0326C31.2251 52.8899 32.3878 53.3715 33.6002 53.3715L46.4002 53.3715C47.6127 53.3715 48.7754 52.8899 49.6327 52.0326C50.49 51.1753 50.9717 50.0125 50.9717 48.8001L50.9717 34.1715C50.9703 33.1044 50.5957 32.0715 49.9127 31.2516C49.2297 30.4317 48.2815 29.8766 47.2322 29.6824ZM38.8208 45.7921L36.078 48.5349C35.993 48.6206 35.8918 48.6887 35.7804 48.7351C35.669 48.7815 35.5495 48.8054 35.4288 48.8054C35.3081 48.8054 35.1886 48.7815 35.0772 48.7351C34.9658 48.6887 34.8647 48.6206 34.7797 48.5349L33.8654 47.6207C33.7801 47.5354 33.7125 47.4342 33.6664 47.3228C33.6202 47.2114 33.5965 47.0921 33.5965 46.9715C33.5965 46.851 33.6202 46.7316 33.6664 46.6202C33.7125 46.5088 33.7801 46.4076 33.8654 46.3224C34.0375 46.1502 34.271 46.0535 34.5145 46.0535C34.6351 46.0535 34.7545 46.0772 34.8658 46.1234C34.9772 46.1695 35.0784 46.2371 35.1637 46.3224L35.374 46.5418L35.5842 46.4321L37.5225 44.4938C37.6078 44.4086 37.709 44.3409 37.8204 44.2948C37.9317 44.2487 38.0511 44.2249 38.1717 44.2249C38.2922 44.2249 38.4116 44.2487 38.523 44.2948C38.6344 44.3409 38.7356 44.4086 38.8208 44.4938C38.9061 44.579 38.9737 44.6802 39.0198 44.7916C39.0659 44.903 39.0897 45.0224 39.0897 45.1429C39.0897 45.2635 39.0659 45.3829 39.0198 45.4943C38.9737 45.6056 38.9061 45.7068 38.8208 45.7921ZM38.8208 38.4778L36.078 41.2207C35.993 41.3064 35.8918 41.3744 35.7804 41.4208C35.669 41.4672 35.5495 41.4911 35.4288 41.4911C35.3081 41.4911 35.1886 41.4672 35.0772 41.4208C34.9658 41.3744 34.8647 41.3064 34.7797 41.2207L33.8654 40.3064C33.6932 40.1342 33.5965 39.9007 33.5965 39.6572C33.5965 39.4138 33.6932 39.1802 33.8654 39.0081C34.0375 38.8359 34.271 38.7392 34.5145 38.7392C34.758 38.7392 34.9915 38.8359 35.1637 39.0081L35.374 39.2275L35.5842 39.1178L37.5225 37.1795C37.6947 37.0074 37.9282 36.9106 38.1717 36.9106C38.4151 36.9106 38.6486 37.0074 38.8208 37.1795C38.993 37.3517 39.0897 37.5852 39.0897 37.8287C39.0897 38.0721 38.993 38.3056 38.8208 38.4778ZM45.486 47.8858L41.8288 47.8858C41.5863 47.8858 41.3538 47.7895 41.1823 47.618C41.0108 47.4465 40.9145 47.214 40.9145 46.9715C40.9145 46.729 41.0108 46.4965 41.1823 46.325C41.3538 46.1536 41.5863 46.0572 41.8288 46.0572L45.486 46.0572C45.7284 46.0572 45.961 46.1536 46.1324 46.325C46.3039 46.4965 46.4002 46.729 46.4002 46.9715C46.4002 47.214 46.3039 47.4465 46.1324 47.618C45.961 47.7895 45.7284 47.8858 45.486 47.8858ZM45.486 40.5715L41.8288 40.5715C41.5863 40.5715 41.3538 40.4752 41.1823 40.3037C41.0108 40.1323 40.9145 39.8997 40.9145 39.6572C40.9145 39.4147 41.0108 39.1822 41.1823 39.0107C41.3538 38.8393 41.5863 38.7429 41.8288 38.7429L45.486 38.7429C45.7284 38.7429 45.961 38.8393 46.1324 39.0107C46.3039 39.1822 46.4002 39.4147 46.4002 39.6572C46.4002 39.8997 46.3039 40.1323 46.1324 40.3037C45.961 40.4752 45.7284 40.5715 45.486 40.5715Z" fill="#4328B7"/>
</svg>
