<svg width="80" height="80" viewBox="0 0 80 80" fill="none" xmlns="http://www.w3.org/2000/svg">
<rect x="0.5" y="0.5" width="79" height="79" rx="39.5" stroke="#E2E2E2"/>
<g clip-path="url(#clip0_12_120)">
<path d="M47 28H33C31.6739 28 30.4021 28.5268 29.4645 29.4645C28.5268 30.4021 28 31.6739 28 33V47C28 48.3261 28.5268 49.5979 29.4645 50.5355C30.4021 51.4732 31.6739 52 33 52H47C48.3261 52 49.5979 51.4732 50.5355 50.5355C51.4732 49.5979 52 48.3261 52 47V33C52 31.6739 51.4732 30.4021 50.5355 29.4645C49.5979 28.5268 48.3261 28 47 28ZM40 48C38.4177 48 36.871 47.5308 35.5554 46.6518C34.2398 45.7727 33.2145 44.5233 32.609 43.0615C32.0035 41.5997 31.845 39.9911 32.1537 38.4393C32.4624 36.8874 33.2243 35.462 34.3431 34.3431C35.462 33.2243 36.8874 32.4624 38.4393 32.1537C39.9911 31.845 41.5997 32.0035 43.0615 32.609C44.5233 33.2145 45.7727 34.2398 46.6518 35.5554C47.5308 36.871 48 38.4177 48 40C48 42.1217 47.1571 44.1566 45.6569 45.6569C44.1566 47.1571 42.1217 48 40 48Z" fill="#4328B7"/>
<path d="M40 34C38.8133 34 37.6533 34.3519 36.6666 35.0112C35.6799 35.6705 34.9109 36.6075 34.4567 37.7039C34.0026 38.8003 33.8838 40.0067 34.1153 41.1705C34.3468 42.3344 34.9182 43.4035 35.7574 44.2426C36.5965 45.0818 37.6656 45.6532 38.8295 45.8847C39.9933 46.1162 41.1997 45.9974 42.2961 45.5433C43.3925 45.0892 44.3295 44.3201 44.9888 43.3334C45.6481 42.3467 46 41.1867 46 40C46 38.4087 45.3679 36.8826 44.2426 35.7574C43.1174 34.6321 41.5913 34 40 34ZM43 41H41.72C41.4999 41.3813 41.1601 41.6793 40.7533 41.8478C40.3466 42.0162 39.8956 42.0458 39.4703 41.9319C39.045 41.8179 38.6693 41.5668 38.4012 41.2175C38.1332 40.8682 37.988 40.4403 37.988 40C37.988 39.5597 38.1332 39.1318 38.4012 38.7825C38.6693 38.4332 39.045 38.1821 39.4703 38.0681C39.8956 37.9542 40.3466 37.9838 40.7533 38.1522C41.1601 38.3207 41.4999 38.6187 41.72 39H43C43.2652 39 43.5196 39.1054 43.7071 39.2929C43.8946 39.4804 44 39.7348 44 40C44 40.2652 43.8946 40.5196 43.7071 40.7071C43.5196 40.8946 43.2652 41 43 41Z" fill="#C47BFF"/>
</g>
<defs>
<clipPath id="clip0_12_120">
<rect width="32" height="32" fill="white" transform="translate(24 24)"/>
</clipPath>
</defs>
</svg>
