<svg width="24" height="24" viewBox="0 0 24 24" fill="none" xmlns="http://www.w3.org/2000/svg">
<path d="M7.38126 19.1984C4.91939 17.621 3.45098 14.9413 3.45098 12.0263C3.45098 7.32909 7.2854 3.50338 12 3.50338C12.4009 3.50338 12.7233 3.18094 12.7233 2.78007C12.7233 2.3792 12.4009 2.05676 12 2.05676C6.48801 2.05676 2 6.53171 2 12.0306C2 15.438 3.71677 18.5753 6.59695 20.4228C6.71895 20.5012 6.85403 20.5361 6.9891 20.5361C7.22875 20.5361 7.45969 20.4184 7.59912 20.2005C7.81263 19.865 7.71677 19.4162 7.38126 19.1984ZM17.8475 3.93911C17.5207 3.70382 17.0719 3.77789 16.8366 4.10469C16.6013 4.43149 16.6754 4.88465 17.0022 5.11558C19.2244 6.71471 20.5534 9.29859 20.5534 12.0306C20.5534 16.7278 16.7189 20.5535 12.0043 20.5535C11.6035 20.5535 11.281 20.8759 11.281 21.2768C11.281 21.6777 11.6035 22.0001 12.0043 22.0001C17.5163 22.0001 22.0043 17.5295 22.0043 12.0306C22 8.83671 20.4488 5.81275 17.8475 3.93911Z" fill="#4328B7"/>
<path d="M11.9999 5.51624C10.3485 5.51624 8.77119 6.13061 7.55986 7.25044C7.26792 7.52059 7.24613 7.98246 7.52064 8.2744C7.79079 8.56634 8.24831 8.58813 8.54461 8.31362C9.48578 7.44216 10.7145 6.96286 11.9999 6.96286C14.8017 6.96286 17.0805 9.23301 17.0805 12.026C17.0805 12.4269 17.403 12.7493 17.8039 12.7493C18.2047 12.7493 18.5272 12.4269 18.5272 12.026C18.5315 8.43998 15.6034 5.51624 11.9999 5.51624ZM11.9999 18.5402C13.7603 18.5402 15.4117 17.8517 16.6492 16.6012C16.9324 16.318 16.928 15.8561 16.6448 15.5772C16.5773 15.5102 16.4973 15.4571 16.4093 15.4211C16.3213 15.385 16.227 15.3666 16.1319 15.367C16.0368 15.3674 15.9427 15.3866 15.855 15.4234C15.7673 15.4602 15.6878 15.514 15.6209 15.5816C15.1486 16.0608 14.5855 16.4409 13.9645 16.6998C13.3435 16.9587 12.6771 17.0911 12.0043 17.0892C9.20256 17.0892 6.92369 14.8191 6.92369 12.026C6.92369 11.6252 6.60125 11.3027 6.20038 11.3027C5.79951 11.3027 5.47707 11.6252 5.47707 12.026C5.46836 15.6208 8.40081 18.5402 11.9999 18.5402Z" fill="#4328B7"/>
<path d="M12.0002 9.19824C10.4359 9.19824 9.16357 10.4662 9.16357 12.0261C9.16357 13.586 10.4315 14.854 12.0002 14.854C13.5644 14.854 14.8368 13.586 14.8368 12.0261C14.8368 10.4706 13.5644 9.19824 12.0002 9.19824ZM12.0002 13.4074C11.2333 13.4074 10.6146 12.7887 10.6146 12.0261C10.6157 11.6594 10.7622 11.3081 11.0219 11.0492C11.2817 10.7902 11.6334 10.6449 12.0002 10.6449C12.3669 10.6449 12.7187 10.7902 12.9784 11.0492C13.2381 11.3081 13.3846 11.6594 13.3858 12.0261C13.3846 12.3929 13.2381 12.7442 12.9784 13.0031C12.7187 13.262 12.3669 13.4074 12.0002 13.4074Z" fill="#4328B7"/>
<path d="M9.28941 19.6819C8.64889 19.6819 8.13037 20.2004 8.13037 20.8366C8.13037 20.9888 8.16035 21.1395 8.2186 21.2801C8.27684 21.4207 8.36222 21.5485 8.46985 21.6561C8.57747 21.7638 8.70524 21.8491 8.84587 21.9074C8.98649 21.9656 9.1372 21.9956 9.28941 21.9956C9.44162 21.9956 9.59234 21.9656 9.73296 21.9074C9.87358 21.8491 10.0013 21.7638 10.109 21.6561C10.2166 21.5485 10.302 21.4207 10.3602 21.2801C10.4185 21.1395 10.4485 20.9888 10.4485 20.8366C10.4485 20.2004 9.92558 19.6819 9.28941 19.6819ZM9.28941 21.1329C9.23167 21.1329 9.17523 21.1157 9.12722 21.0837C9.07921 21.0516 9.04179 21.006 9.0197 20.9526C8.9976 20.8993 8.99182 20.8406 9.00308 20.784C9.01435 20.7273 9.04215 20.6753 9.08298 20.6345C9.12381 20.5937 9.17583 20.5659 9.23246 20.5546C9.28909 20.5433 9.34779 20.5491 9.40113 20.5712C9.45448 20.5933 9.50007 20.6307 9.53215 20.6787C9.56423 20.7267 9.58135 20.7832 9.58135 20.8409C9.57699 21.0021 9.44627 21.1329 9.28941 21.1329Z" fill="#4328B7"/>
<path d="M14.9017 2C14.2612 2 13.7427 2.51852 13.7427 3.15904C13.7427 3.79521 14.2612 4.31372 14.9017 4.31372C15.5379 4.31372 16.0608 3.79521 16.0608 3.15904C16.0608 2.51852 15.5379 2 14.9017 2ZM14.9017 3.44662C14.844 3.44662 14.7875 3.4295 14.7395 3.39742C14.6915 3.36534 14.6541 3.31975 14.632 3.2664C14.6099 3.21306 14.6041 3.15436 14.6154 3.09773C14.6267 3.0411 14.6545 2.98908 14.6953 2.94825C14.7361 2.90742 14.7881 2.87962 14.8448 2.86835C14.9014 2.85709 14.9601 2.86287 15.0134 2.88497C15.0668 2.90706 15.1124 2.94448 15.1445 2.99249C15.1765 3.0405 15.1937 3.09694 15.1937 3.15468C15.1893 3.32026 15.0586 3.44662 14.9017 3.44662Z" fill="#4328B7"/>
<path d="M17.3724 12.9717C16.7319 12.9717 16.2134 13.4946 16.2134 14.1307C16.2134 14.7669 16.7319 15.2898 17.3724 15.2898C18.0086 15.2898 18.5315 14.7669 18.5315 14.1307C18.5315 13.4946 18.0086 12.9717 17.3724 12.9717ZM17.3724 14.4227C17.295 14.4227 17.2207 14.3919 17.166 14.3372C17.1112 14.2824 17.0805 14.2081 17.0805 14.1307C17.0805 14.0533 17.1112 13.979 17.166 13.9243C17.2207 13.8695 17.295 13.8388 17.3724 13.8388C17.4498 13.8388 17.5241 13.8695 17.5789 13.9243C17.6336 13.979 17.6644 14.0533 17.6644 14.1307C17.6644 14.2081 17.6336 14.2824 17.5789 14.3372C17.5241 14.3919 17.4498 14.4227 17.3724 14.4227Z" fill="#4328B7"/>
<path d="M6.7191 8.53149C6.07858 8.53149 5.56006 9.05001 5.56006 9.68618C5.56006 10.3267 6.07858 10.8452 6.7191 10.8452C7.35962 10.8452 7.87814 10.3267 7.87814 9.68618C7.87814 9.05001 7.35962 8.53149 6.7191 8.53149ZM6.7191 9.98247C6.64167 9.98247 6.56742 9.95172 6.51267 9.89697C6.45792 9.84222 6.42716 9.76796 6.42716 9.69053C6.42716 9.61311 6.45792 9.53885 6.51267 9.4841C6.56742 9.42935 6.64167 9.3986 6.7191 9.3986C6.79653 9.3986 6.87078 9.42935 6.92553 9.4841C6.98028 9.53885 7.01104 9.61311 7.01104 9.69053C7.01104 9.76796 6.98028 9.84222 6.92553 9.89697C6.87078 9.95172 6.79653 9.98247 6.7191 9.98247Z" fill="#4328B7"/>
</svg>
