<svg width="80" height="80" viewBox="0 0 80 80" fill="none" xmlns="http://www.w3.org/2000/svg">
<path d="M0.5 32C0.5 14.603 14.603 0.5 32 0.5H79.5V79.5H0.5V32Z" stroke="#E2E2E2"/>
<path fill-rule="evenodd" clip-rule="evenodd" d="M51.6258 28.3848C51.8129 28.5719 51.9122 28.8293 51.8993 29.0935L51.6707 33.7722C51.4888 37.4946 50.0087 41.028 47.5 43.7644V49.375C47.5 50.9284 46.2408 52.1875 44.6875 52.1875H39.0625C39.0113 52.1875 38.9611 52.1834 38.9121 52.1755C38.6066 52.2473 38.2721 52.1641 38.0339 51.9259L28.0848 41.9768C27.8522 41.7442 27.7674 41.4199 27.8303 41.1203C27.8186 41.0612 27.8125 41 27.8125 40.9375V35.3125C27.8125 33.7592 29.0717 32.5 30.625 32.5H36.25C36.2526 32.5 36.2552 32.5 36.2579 32.5C38.9927 29.9977 42.5213 28.5216 46.2385 28.34L50.9172 28.1113C51.1814 28.0984 51.4388 28.1978 51.6258 28.3848ZM34.3608 34.375H30.625C30.1072 34.375 29.6875 34.7947 29.6875 35.3125V39.0483L34.3608 34.375ZM40.973 50.3125H44.6875C45.2053 50.3125 45.625 49.8928 45.625 49.375V45.6605L40.973 50.3125ZM43.7499 34.375C44.7855 34.375 45.6249 35.2145 45.6249 36.25C45.6249 37.2856 44.7855 38.125 43.7499 38.125C42.7144 38.125 41.8749 37.2856 41.8749 36.25C41.8749 35.2145 42.7144 34.375 43.7499 34.375Z" fill="#4328B7"/>
<path fill-rule="evenodd" clip-rule="evenodd" d="M28.75 46.5625C29.2678 46.5625 29.6875 46.9822 29.6875 47.5V49.375C29.6875 49.8928 30.1072 50.3125 30.625 50.3125H32.5C33.0178 50.3125 33.4375 50.7322 33.4375 51.25C33.4375 51.7678 33.0178 52.1875 32.5 52.1875H30.625C29.0717 52.1875 27.8125 50.9283 27.8125 49.375V47.5C27.8125 46.9822 28.2322 46.5625 28.75 46.5625Z" fill="#C47BFF"/>
</svg>
