<svg width="24" height="24" viewBox="0 0 24 24" fill="none" xmlns="http://www.w3.org/2000/svg">
<path d="M19.8399 1.92004C20.434 1.92004 21.0038 2.15604 21.4238 2.57612C21.8439 2.99621 22.0799 3.56596 22.0799 4.16004V19.84C22.0799 20.4341 21.8439 21.0039 21.4238 21.424C21.0038 21.844 20.434 22.08 19.8399 22.08H4.15992C3.56584 22.08 2.99608 21.844 2.576 21.424C2.15592 21.0039 1.91992 20.4341 1.91992 19.84V4.16004C1.91992 3.56596 2.15592 2.99621 2.576 2.57612C2.99608 2.15604 3.56584 1.92004 4.15992 1.92004H19.8399ZM19.2799 19.28V13.344C19.2799 12.3757 18.8952 11.447 18.2105 10.7623C17.5258 10.0775 16.5971 9.69284 15.6287 9.69284C14.6767 9.69284 13.5679 10.2752 13.0303 11.1488V9.90564H9.90552V19.28H13.0303V13.7584C13.0303 12.896 13.7247 12.1904 14.5871 12.1904C15.003 12.1904 15.4018 12.3556 15.6959 12.6497C15.9899 12.9438 16.1551 13.3426 16.1551 13.7584V19.28H19.2799ZM6.26552 8.14724C6.76455 8.14724 7.24315 7.94901 7.59601 7.59614C7.94888 7.24327 8.14712 6.76468 8.14712 6.26564C8.14712 5.22404 7.30712 4.37284 6.26552 4.37284C5.76352 4.37284 5.28208 4.57226 4.92711 4.92723C4.57214 5.2822 4.37272 5.76364 4.37272 6.26564C4.37272 7.30724 5.22392 8.14724 6.26552 8.14724ZM7.82232 19.28V9.90564H4.71992V19.28H7.82232Z" fill="#1B1B1B"/>
</svg>
