<svg width="24" height="24" viewBox="0 0 24 24" fill="none" xmlns="http://www.w3.org/2000/svg">
<path d="M13.09 1.39925C13.8637 1.39628 14.6373 1.40406 15.4107 1.42258L15.6164 1.43C15.8539 1.43848 16.0882 1.44908 16.3713 1.4618C17.4993 1.51481 18.2689 1.69292 18.9443 1.95478C19.644 2.22406 20.2334 2.58876 20.8229 3.17821C21.3618 3.70787 21.779 4.34857 22.0453 5.05576C22.3071 5.73108 22.4852 6.50182 22.5382 7.62984C22.551 7.91184 22.5616 8.1472 22.57 8.38467L22.5764 8.59035C22.5952 9.36341 22.6034 10.1367 22.6008 10.91L22.6018 11.7009V13.0897C22.6045 13.8633 22.5963 14.637 22.5775 15.4104L22.5711 15.6161C22.5626 15.8535 22.552 16.0878 22.5393 16.3709C22.4863 17.4989 22.3061 18.2686 22.0453 18.9439C21.7798 19.6518 21.3626 20.2931 20.8229 20.8225C20.2928 21.3614 19.6517 21.7785 18.9443 22.0449C18.2689 22.3067 17.4993 22.4849 16.3713 22.5379C16.0882 22.5506 15.8539 22.5612 15.6164 22.5697L15.4107 22.576C14.6373 22.5949 13.8637 22.603 13.09 22.6004L12.2992 22.6015H10.9114C10.1378 22.6041 9.36413 22.596 8.59071 22.5771L8.38504 22.5707C8.13337 22.5616 7.88175 22.551 7.6302 22.5389C6.50219 22.4859 5.73251 22.3057 5.05613 22.0449C4.34866 21.7792 3.70785 21.362 3.17858 20.8225C2.639 20.2927 2.22149 19.6516 1.95515 18.9439C1.69329 18.2686 1.51518 17.4989 1.46217 16.3709C1.45036 16.1193 1.43976 15.8677 1.43037 15.6161L1.42507 15.4104C1.40552 14.637 1.39668 13.8633 1.39856 13.0897V10.91C1.3956 10.1367 1.40338 9.36341 1.42188 8.59035L1.42931 8.38467C1.43779 8.1472 1.44839 7.91184 1.46111 7.62984C1.51412 6.50076 1.69223 5.73214 1.95409 5.05576C2.22058 4.34823 2.63891 3.7077 3.17964 3.17927C3.70855 2.63938 4.34896 2.22149 5.05613 1.95478C5.73251 1.69292 6.50113 1.51481 7.6302 1.4618L8.38504 1.43L8.59071 1.4247C9.36377 1.40516 10.1371 1.39633 10.9104 1.39819L13.09 1.39925ZM12.0002 6.70007C11.2978 6.69014 10.6005 6.8199 9.94876 7.0818C9.29699 7.34371 8.70378 7.73254 8.20359 8.22571C7.7034 8.71887 7.30622 9.30653 7.03512 9.95453C6.76402 10.6025 6.62442 11.2979 6.62442 12.0004C6.62442 12.7028 6.76402 13.3982 7.03512 14.0462C7.30622 14.6942 7.7034 15.2819 8.20359 15.775C8.70378 16.2682 9.29699 16.657 9.94876 16.9189C10.6005 17.1808 11.2978 17.3106 12.0002 17.3007C13.4061 17.3007 14.7543 16.7422 15.7484 15.7481C16.7425 14.754 17.301 13.4057 17.301 11.9998C17.301 10.594 16.7425 9.24568 15.7484 8.25159C14.7543 7.25749 13.4061 6.70007 12.0002 6.70007ZM12.0002 8.8204C12.4227 8.81262 12.8425 8.8891 13.2351 9.04538C13.6277 9.20165 13.9852 9.4346 14.2867 9.7306C14.5883 10.0266 14.8278 10.3797 14.9914 10.7693C15.1549 11.159 15.2392 11.5773 15.2393 11.9998C15.2394 12.4224 15.1552 12.8407 14.9918 13.2304C14.8284 13.6201 14.589 13.9733 14.2875 14.2694C13.986 14.5655 13.6286 14.7985 13.2361 14.9549C12.8435 15.1113 12.4237 15.188 12.0013 15.1803C11.1577 15.1803 10.3488 14.8452 9.75231 14.2488C9.15586 13.6523 8.82077 12.8434 8.82077 11.9998C8.82077 11.1563 9.15586 10.3473 9.75231 9.75089C10.3488 9.15443 11.1577 8.81934 12.0013 8.81934L12.0002 8.8204ZM17.5661 5.10983C17.224 5.12352 16.9006 5.26901 16.6634 5.51584C16.4263 5.76267 16.2939 6.09168 16.2939 6.43397C16.2939 6.77626 16.4263 7.10528 16.6634 7.3521C16.9006 7.59893 17.224 7.74443 17.5661 7.75812C17.9175 7.75812 18.2546 7.6185 18.5031 7.36997C18.7516 7.12145 18.8913 6.78438 18.8913 6.43291C18.8913 6.08145 18.7516 5.74438 18.5031 5.49585C18.2546 5.24733 17.9175 5.10771 17.5661 5.10771V5.10983Z" fill="#1B1B1B"/>
</svg>
