<svg width="220" height="120" viewBox="0 0 220 120" fill="none" xmlns="http://www.w3.org/2000/svg">
<g clip-path="url(#clip0_2_223)">
<path fill-rule="evenodd" clip-rule="evenodd" d="M56.9649 54.1797C55.8089 53.4105 54.4497 53 53.0594 53V46C55.8401 46 58.5583 46.8211 60.8704 48.3594C63.1825 49.8978 64.9845 52.0843 66.0486 54.6424C67.1127 57.2006 67.3911 60.0155 66.8487 62.7313C66.3062 65.447 64.9672 67.9416 63.0009 69.8995C61.0347 71.8574 58.5295 73.1908 55.8023 73.731C53.075 74.2712 50.2481 73.9939 47.6791 72.9343C45.1101 71.8747 42.9143 70.0803 41.3694 67.778C39.8246 65.4757 39 62.7689 39 60H46.0297C46.0297 61.3845 46.442 62.7378 47.2144 63.889C47.9868 65.0401 49.0847 65.9373 50.3693 66.4672C51.6537 66.997 53.0672 67.1356 54.4308 66.8655C55.7945 66.5954 57.047 65.9287 58.0302 64.9498C59.0133 63.9708 59.6828 62.7235 59.954 61.3656C60.2253 60.0078 60.0861 58.6003 59.554 57.3212C59.0219 56.0421 58.1209 54.9489 56.9649 54.1797Z" fill="#1B1B1B"/>
<path fill-rule="evenodd" clip-rule="evenodd" d="M46.0297 46C46.0297 46.9193 45.8479 47.8295 45.4946 48.6788C45.1413 49.5281 44.6235 50.2997 43.9707 50.9498C43.318 51.5998 42.543 52.1154 41.6902 52.4672C40.8373 52.8189 39.9232 53 39 53L39 60C40.8463 60 42.6745 59.6379 44.3803 58.9343C46.0861 58.2308 47.636 57.1995 48.9415 55.8995C50.247 54.5995 51.2826 53.0561 51.9892 51.3576C52.6958 49.659 53.0594 47.8385 53.0594 46L46.0297 46Z" fill="#1B1B1B"/>
<path d="M127.306 56.1167H123.896V66.9053H127.306V56.1167Z" fill="#1B1B1B"/>
<path d="M124.275 54.0965C124.632 54.4517 125.077 54.6293 125.612 54.6293C126.147 54.6293 126.586 54.4517 126.928 54.0965C127.27 53.7266 127.441 53.2826 127.441 52.7646C127.441 52.2318 127.27 51.7878 126.928 51.4327C126.586 51.0775 126.147 50.8999 125.612 50.8999C125.077 50.8999 124.632 51.0775 124.275 51.4327C123.933 51.7878 123.762 52.2318 123.762 52.7646C123.762 53.2826 123.933 53.7266 124.275 54.0965Z" fill="#1B1B1B"/>
<path d="M74.9613 66.9053V51.2329H78.4613V63.8419H85.4391V66.9053H74.9613Z" fill="#1B1B1B"/>
<path fill-rule="evenodd" clip-rule="evenodd" d="M91.742 67.1496C90.6274 67.1496 89.6168 66.9054 88.7102 66.417C87.8185 65.9138 87.1126 65.2331 86.5924 64.3747C86.0722 63.5163 85.8121 62.5544 85.8121 61.4889C85.8121 60.4233 86.0722 59.4688 86.5924 58.6252C87.1126 57.7817 87.8185 57.1157 88.7102 56.6274C89.6019 56.1241 90.6126 55.8726 91.742 55.8726C92.8716 55.8726 93.8822 56.1168 94.7739 56.6051C95.6656 57.0935 96.3716 57.7669 96.8917 58.6252C97.4119 59.4688 97.672 60.4233 97.672 61.4889C97.672 62.5544 97.4119 63.5163 96.8917 64.3747C96.3716 65.2331 95.6656 65.9138 94.7739 66.417C93.8822 66.9054 92.8716 67.1496 91.742 67.1496ZM91.742 64.064C92.2325 64.064 92.6635 63.9604 93.0351 63.7532C93.4066 63.5312 93.689 63.2278 93.8822 62.843C94.0902 62.4435 94.1943 61.992 94.1943 61.4889C94.1943 60.9857 94.0902 60.5491 93.8822 60.1792C93.6741 59.7944 93.3843 59.4984 93.0127 59.2912C92.656 59.0692 92.2325 58.9582 91.742 58.9582C91.2665 58.9582 90.8429 59.0692 90.4713 59.2912C90.0998 59.4984 89.81 59.7944 89.6019 60.1792C89.3938 60.564 89.2899 61.0079 89.2899 61.5111C89.2899 61.9994 89.3938 62.4435 89.6019 62.843C89.81 63.2278 90.0998 63.5312 90.4713 63.7532C90.8429 63.9604 91.2665 64.064 91.742 64.064Z" fill="#1B1B1B"/>
<path fill-rule="evenodd" clip-rule="evenodd" d="M100.373 71.1232C101.28 71.5375 102.328 71.7447 103.517 71.7447C104.676 71.7447 105.709 71.5153 106.615 71.0566C107.522 70.5978 108.235 69.9615 108.755 69.1475C109.276 68.3336 109.536 67.3716 109.536 66.2616V56.1168H106.192V56.8417C105.943 56.6332 105.661 56.4582 105.345 56.3166C104.765 56.0354 104.104 55.8948 103.361 55.8948C102.365 55.8948 101.481 56.1316 100.708 56.6051C99.9348 57.0639 99.3256 57.7003 98.8797 58.5142C98.4338 59.3134 98.2109 60.2162 98.2109 61.2225C98.2109 62.2141 98.4338 63.1168 98.8797 63.9308C99.3256 64.7447 99.9348 65.3885 100.708 65.8621C101.481 66.3356 102.365 66.5724 103.361 66.5724C104.089 66.5724 104.75 66.4319 105.345 66.1507C105.633 66.0145 105.893 65.854 106.125 65.6691V66.3505C106.125 67.1052 105.88 67.6898 105.389 68.1042C104.914 68.5186 104.252 68.7257 103.405 68.7257C102.722 68.7257 102.134 68.6073 101.644 68.3705C101.168 68.1338 100.737 67.786 100.351 67.3272L98.2555 69.4139C98.7756 70.1538 99.4816 70.7236 100.373 71.1232ZM105.233 63.2426C104.891 63.4498 104.483 63.5534 104.007 63.5534C103.532 63.5534 103.115 63.4498 102.759 63.2426C102.417 63.0354 102.149 62.7542 101.956 62.399C101.763 62.0291 101.666 61.6369 101.666 61.2225C101.666 60.7785 101.763 60.379 101.956 60.0238C102.149 59.6686 102.424 59.3874 102.781 59.1802C103.138 58.973 103.546 58.8694 104.007 58.8694C104.483 58.8694 104.891 58.973 105.233 59.1802C105.59 59.3874 105.857 59.6686 106.036 60.0238C106.229 60.379 106.326 60.7785 106.326 61.2225C106.326 61.6665 106.229 62.066 106.036 62.4212C105.857 62.7616 105.59 63.0354 105.233 63.2426Z" fill="#1B1B1B"/>
<path fill-rule="evenodd" clip-rule="evenodd" d="M116.714 67.1496C115.599 67.1496 114.588 66.9054 113.682 66.417C112.79 65.9138 112.084 65.2331 111.564 64.3747C111.044 63.5163 110.784 62.5544 110.784 61.4889C110.784 60.4233 111.044 59.4688 111.564 58.6252C112.084 57.7817 112.79 57.1157 113.682 56.6274C114.574 56.1241 115.584 55.8726 116.714 55.8726C117.843 55.8726 118.854 56.1168 119.745 56.6051C120.637 57.0935 121.343 57.7669 121.863 58.6252C122.384 59.4688 122.644 60.4233 122.644 61.4889C122.644 62.5544 122.384 63.5163 121.863 64.3747C121.343 65.2331 120.637 65.9138 119.745 66.417C118.854 66.9054 117.843 67.1496 116.714 67.1496ZM116.714 64.064C117.204 64.064 117.635 63.9604 118.007 63.7532C118.378 63.5312 118.661 63.2278 118.854 62.843C119.062 62.4435 119.166 61.992 119.166 61.4889C119.166 60.9857 119.062 60.5491 118.854 60.1792C118.646 59.7944 118.356 59.4984 117.984 59.2912C117.628 59.0692 117.204 58.9582 116.714 58.9582C116.238 58.9582 115.814 59.0692 115.443 59.2912C115.071 59.4984 114.782 59.7944 114.574 60.1792C114.365 60.564 114.261 61.0079 114.261 61.5111C114.261 61.9994 114.365 62.4435 114.574 62.843C114.782 63.2278 115.071 63.5312 115.443 63.7532C115.814 63.9604 116.238 64.064 116.714 64.064Z" fill="#1B1B1B"/>
<path fill-rule="evenodd" clip-rule="evenodd" d="M135.504 67.1274C134.777 67.1274 134.108 66.9868 133.498 66.7056C133.178 66.5577 132.888 66.381 132.629 66.1756V71.4562H129.263V56.1168H132.674V56.8614C132.921 56.6599 133.196 56.4856 133.498 56.3388C134.108 56.0428 134.777 55.8948 135.504 55.8948C136.53 55.8948 137.437 56.139 138.224 56.6274C139.027 57.1157 139.651 57.7817 140.097 58.6253C140.558 59.4688 140.788 60.4308 140.788 61.5111C140.788 62.5915 140.558 63.5534 140.097 64.397C139.651 65.2405 139.027 65.9065 138.224 66.3948C137.437 66.8832 136.53 67.1274 135.504 67.1274ZM134.881 64.064C135.371 64.064 135.795 63.953 136.151 63.731C136.523 63.509 136.813 63.2056 137.021 62.8209C137.229 62.4361 137.333 61.9995 137.333 61.5111C137.333 61.0079 137.229 60.564 137.021 60.1792C136.813 59.7944 136.523 59.4984 136.151 59.2912C135.795 59.0692 135.379 58.9583 134.903 58.9583C134.428 58.9583 134.004 59.0692 133.632 59.2912C133.275 59.4984 132.993 59.7944 132.785 60.1792C132.577 60.564 132.473 61.0079 132.473 61.5111C132.473 61.9995 132.57 62.4361 132.763 62.8209C132.971 63.2056 133.261 63.509 133.632 63.731C134.004 63.953 134.42 64.064 134.881 64.064Z" fill="#1B1B1B"/>
<path d="M144.126 66.9275C144.751 67.0903 145.382 67.1717 146.021 67.1717C147.373 67.1717 148.443 66.8609 149.231 66.2393C150.033 65.6178 150.435 64.7817 150.435 63.7309C150.435 63.0501 150.309 62.5025 150.056 62.0882C149.804 61.659 149.477 61.3186 149.075 61.067C148.674 60.8155 148.25 60.6156 147.804 60.4676C147.359 60.3196 146.935 60.1939 146.534 60.0903C146.133 59.9867 145.806 59.8683 145.553 59.7351C145.3 59.6019 145.174 59.4243 145.174 59.2023C145.174 58.9951 145.271 58.8397 145.463 58.7361C145.657 58.6177 145.946 58.5586 146.333 58.5586C146.734 58.5586 147.143 58.6399 147.559 58.8027C147.99 58.9655 148.377 59.2468 148.718 59.6463L150.658 57.6928C150.168 57.0712 149.529 56.605 148.741 56.2943C147.968 55.9687 147.121 55.8059 146.199 55.8059C145.323 55.8059 144.557 55.9539 143.904 56.2498C143.249 56.5459 142.744 56.9529 142.387 57.4708C142.031 57.9739 141.852 58.5734 141.852 59.2689C141.852 59.9201 141.979 60.4603 142.231 60.8894C142.484 61.3038 142.811 61.6294 143.212 61.8662C143.613 62.103 144.037 62.288 144.483 62.4211C144.929 62.5543 145.352 62.6801 145.754 62.7986C146.154 62.9022 146.482 63.0279 146.734 63.1759C147.002 63.3091 147.136 63.5089 147.136 63.7753C147.136 63.9825 147.024 64.1452 146.801 64.2637C146.593 64.382 146.289 64.4412 145.887 64.4412C145.307 64.4412 144.772 64.3376 144.282 64.1304C143.792 63.9085 143.368 63.6051 143.012 63.2203L141.072 65.1738C141.444 65.5734 141.89 65.9286 142.41 66.2393C142.945 66.5353 143.517 66.7647 144.126 66.9275Z" fill="#1B1B1B"/>
<path d="M156.655 67.1495C155.659 67.1495 154.775 66.9497 154.002 66.5501C153.244 66.1357 152.65 65.5733 152.219 64.863C151.787 64.1379 151.572 63.3091 151.572 62.3767V56.1167H154.983V62.3323C154.983 62.7023 155.042 63.0205 155.162 63.2869C155.295 63.5533 155.489 63.7605 155.741 63.9085C155.994 64.0564 156.298 64.1304 156.655 64.1304C157.16 64.1304 157.562 63.975 157.859 63.6642C158.156 63.3387 158.305 62.8947 158.305 62.3323V56.1167H161.715V62.3545C161.715 63.3017 161.5 64.1379 161.069 64.863C160.638 65.5733 160.044 66.1357 159.285 66.5501C158.527 66.9497 157.651 67.1495 156.655 67.1495Z" fill="#1B1B1B"/>
<path d="M166.822 56.1168H163.411V66.9054H166.822V60.6009C166.822 60.231 166.896 59.9202 167.045 59.6686C167.208 59.417 167.424 59.2246 167.691 59.0915C167.959 58.9434 168.264 58.8694 168.605 58.8694C169.096 58.8694 169.504 59.0248 169.831 59.3356C170.174 59.6316 170.344 60.0534 170.344 60.6009V66.9054H173.755V60.6009C173.755 60.231 173.83 59.9202 173.978 59.6686C174.142 59.417 174.357 59.2246 174.625 59.0915C174.892 58.9434 175.197 58.8694 175.539 58.8694C176.029 58.8694 176.438 59.0248 176.765 59.3356C177.106 59.6316 177.277 60.0534 177.277 60.6009V66.9054H180.689V60.2236C180.689 59.3209 180.495 58.5513 180.109 57.9149C179.737 57.2637 179.224 56.768 178.571 56.4276C177.932 56.0724 177.196 55.8948 176.363 55.8948C175.516 55.8948 174.751 56.0798 174.067 56.4498C173.623 56.6855 173.235 56.9897 172.903 57.3624C172.593 56.9726 172.216 56.6536 171.771 56.4054C171.177 56.065 170.5 55.8948 169.743 55.8948C168.94 55.8948 168.219 56.065 167.58 56.4054C167.302 56.547 167.05 56.7166 166.822 56.9142V56.1168Z" fill="#1B1B1B"/>
</g>
<defs>
<clipPath id="clip0_2_223">
<rect width="142" height="28" fill="white" transform="translate(39 46)"/>
</clipPath>
</defs>
</svg>
