<svg width="220" height="120" viewBox="0 0 220 120" fill="none" xmlns="http://www.w3.org/2000/svg">
<g clip-path="url(#clip0_2_237)">
<path d="M106.176 73.7143H108.572V64.4314H106.176V73.7143ZM106.176 62.9837H108.572V60.7761H106.176V62.9837Z" fill="#1B1B1B"/>
<path d="M110.116 76.7542H112.512V72.6647H112.547C113.058 73.4608 113.886 73.9856 115.154 73.9856C117.48 73.9856 119.065 72.0856 119.065 69.0818C119.065 66.1865 117.533 64.178 115.137 64.178C113.904 64.178 113.058 64.7751 112.477 65.5894H112.424V64.4313H110.116V76.7542ZM114.643 71.9408C113.216 71.9408 112.459 70.8371 112.459 69.1542C112.459 67.4894 113.058 66.1684 114.555 66.1684C116.035 66.1684 116.634 67.3989 116.634 69.1542C116.634 70.9094 115.859 71.9408 114.643 71.9408Z" fill="#1B1B1B"/>
<path d="M123.844 73.9856C126.099 73.9856 127.65 72.8637 127.65 70.9999C127.65 68.8285 125.976 68.3942 124.461 68.0685C123.175 67.7971 121.977 67.7246 121.977 66.9285C121.977 66.259 122.594 65.897 123.527 65.897C124.549 65.897 125.166 66.259 125.271 67.2542H127.438C127.262 65.3904 125.941 64.178 123.563 64.178C121.501 64.178 119.881 65.137 119.881 67.1455C119.881 69.1723 121.466 69.6247 123.087 69.9504C124.32 70.2037 125.465 70.2942 125.465 71.1809C125.465 71.8323 124.866 72.2485 123.809 72.2485C122.735 72.2485 121.995 71.778 121.836 70.7104H119.616C119.757 72.6828 121.22 73.9856 123.844 73.9856Z" fill="#1B1B1B"/>
<path d="M136.746 73.7143V64.4314H134.35V69.7876C134.35 71.018 133.663 71.8866 132.536 71.8866C131.514 71.8866 131.038 71.2895 131.038 70.2037V64.4314H128.66V70.62C128.66 72.6466 129.787 73.9676 131.796 73.9676C133.064 73.9676 133.769 73.479 134.385 72.6285H134.438V73.7143H136.746Z" fill="#1B1B1B"/>
<path d="M138.296 73.7142H140.692V68.3218C140.692 67.0913 141.343 66.2951 142.312 66.2951C143.193 66.2951 143.704 66.8379 143.704 67.8875V73.7142H146.1V68.3218C146.1 67.0913 146.716 66.2951 147.721 66.2951C148.601 66.2951 149.112 66.8379 149.112 67.8875V73.7142H151.508V67.4713C151.508 65.4446 150.433 64.178 148.531 64.178C147.386 64.178 146.435 64.7932 145.818 65.8065H145.783C145.342 64.8294 144.426 64.178 143.281 64.178C142.03 64.178 141.15 64.8294 140.656 65.6799H140.603V64.4313H138.296V73.7142Z" fill="#1B1B1B"/>
<path d="M106.212 57.8148H108.607V44.8767H106.212V57.8148Z" fill="#1B1B1B"/>
<path d="M114.466 58.0862C117.267 58.0862 119.187 55.951 119.187 53.1824C119.187 50.4138 117.267 48.2786 114.466 48.2786C111.665 48.2786 109.744 50.4138 109.744 53.1824C109.744 55.951 111.665 58.0862 114.466 58.0862ZM114.466 56.2043C112.986 56.2043 112.175 54.9919 112.175 53.1824C112.175 51.3728 112.986 50.1424 114.466 50.1424C115.928 50.1424 116.756 51.3728 116.756 53.1824C116.756 54.9919 115.928 56.2043 114.466 56.2043Z" fill="#1B1B1B"/>
<path d="M124.282 60.9815C125.621 60.9815 126.784 60.6558 127.541 59.9319C128.21 59.2986 128.616 58.4119 128.616 57.1091V48.5319H126.308V49.509H126.273C125.726 48.7309 124.898 48.2786 123.771 48.2786C121.481 48.2786 119.86 50.0519 119.86 52.8205C119.86 55.6253 121.833 57.2538 123.842 57.2538C124.987 57.2538 125.674 56.7834 126.202 56.1681H126.255V57.1814C126.255 58.4481 125.603 59.1176 124.247 59.1176C123.137 59.1176 122.626 58.6653 122.432 58.0862H120.054C120.301 59.8958 121.816 60.9815 124.282 60.9815ZM124.247 55.2815C123.014 55.2815 122.203 54.3586 122.203 52.7843C122.203 51.2281 123.014 50.251 124.229 50.251C125.674 50.251 126.378 51.409 126.378 52.7662C126.378 54.1414 125.762 55.2815 124.247 55.2815Z" fill="#1B1B1B"/>
<path d="M134.439 58.0862C137.24 58.0862 139.16 55.951 139.16 53.1824C139.16 50.4138 137.24 48.2786 134.439 48.2786C131.638 48.2786 129.718 50.4138 129.718 53.1824C129.718 55.951 131.638 58.0862 134.439 58.0862ZM134.439 56.2043C132.959 56.2043 132.149 54.9919 132.149 53.1824C132.149 51.3728 132.959 50.1424 134.439 50.1424C135.901 50.1424 136.729 51.3728 136.729 53.1824C136.729 54.9919 135.901 56.2043 134.439 56.2043Z" fill="#1B1B1B"/>
<path d="M141.261 54.2683H151.619V52.1511H141.261V54.2683Z" fill="#1B1B1B"/>
<path d="M152.379 62.8546C152.379 62.4382 152.707 62.1006 153.113 62.1006H154.581C154.986 62.1006 155.315 62.4382 155.315 62.8546C155.315 63.2709 154.986 63.6085 154.581 63.6085H153.113C152.707 63.6085 152.379 63.2709 152.379 62.8546Z" fill="#1B1B1B"/>
<path fill-rule="evenodd" clip-rule="evenodd" d="M81.9808 42C91.659 42 99.5046 50.0589 99.5046 60C99.5046 69.9411 91.659 78 81.9808 78C72.3027 78 64.457 69.9411 64.457 60C64.457 50.0589 72.3027 42 81.9808 42ZM81.3474 43.3469C79.3483 43.6359 77.4447 45.286 75.967 48.0457C75.5384 48.8461 75.1516 49.7305 74.8146 50.6854C76.8238 50.1668 79.0311 49.861 81.3474 49.8137V43.3469ZM73.3335 51.1177C73.7526 49.7666 74.2654 48.5236 74.8571 47.4186C75.5896 46.0505 76.4589 44.8692 77.4384 43.9618C72.1121 45.5507 67.9138 49.8631 66.3669 55.3341C67.2503 54.328 68.4004 53.435 69.7323 52.6826C70.808 52.0749 72.0182 51.5482 73.3335 51.1177ZM72.9126 52.639C72.4077 54.7029 72.11 56.9701 72.064 59.3494H65.7683C66.0497 57.2959 67.6561 55.3405 70.3428 53.8228C71.1221 53.3825 71.983 52.9852 72.9126 52.639ZM73.3311 59.3494C73.3834 56.7528 73.7473 54.3151 74.3494 52.1612C76.4463 51.5427 78.8196 51.1688 81.3474 51.1151V53.9257C80.4044 56.4056 78.481 58.3811 76.0666 59.3494H73.3311ZM72.064 60.6506H65.7683C66.0497 62.7041 67.6561 64.6594 70.3428 66.1772C71.1221 66.6175 71.983 67.0148 72.9126 67.361C72.4077 65.2971 72.11 63.0299 72.064 60.6506ZM74.3494 67.8388C73.7473 65.6849 73.3834 63.2472 73.3311 60.6506H76.0666C78.481 61.6189 80.4045 63.5944 81.3474 66.0743V68.8849C78.8196 68.8312 76.4463 68.4573 74.3494 67.8388ZM73.3335 68.8823C72.0182 68.4518 70.808 67.9251 69.7323 67.3174C68.4004 66.565 67.2503 65.672 66.3669 64.6659C67.9138 70.1369 72.1121 74.4493 77.4384 76.0382C76.4589 75.1308 75.5896 73.9495 74.8571 72.5814C74.2654 71.4764 73.7526 70.2334 73.3335 68.8823ZM81.3474 76.6531C79.3483 76.3641 77.4447 74.714 75.967 71.9543C75.5384 71.1539 75.1516 70.2694 74.8146 69.3146C76.8238 69.8332 79.0311 70.139 81.3474 70.1863V76.6531ZM86.5233 76.0382C87.5028 75.1308 88.3721 73.9495 89.1047 72.5814C89.6963 71.4764 90.2091 70.2334 90.6281 68.8823C91.9435 68.4518 93.1537 67.9251 94.2295 67.3174C95.5613 66.565 96.7114 65.672 97.5947 64.6659C96.0479 70.1369 91.8495 74.4493 86.5233 76.0382ZM89.1471 69.3146C88.81 70.2694 88.4233 71.1539 87.9947 71.9543C86.517 74.714 84.6134 76.3641 82.6142 76.6531V70.1863C84.9306 70.139 87.1378 69.8332 89.1471 69.3146ZM91.0491 67.361C91.9786 67.0148 92.8396 66.6175 93.6189 66.1772C96.3056 64.6594 97.912 62.7041 98.1933 60.6506H91.8976C91.8516 63.0299 91.5539 65.2971 91.0491 67.361ZM90.6307 60.6506C90.5784 63.2472 90.2144 65.6849 89.6123 67.8388C87.5154 68.4573 85.1421 68.8312 82.6142 68.8849V66.0763C83.5569 63.5956 85.4808 61.6192 87.8958 60.6506H90.6307ZM91.8976 59.3494H98.1933C97.912 57.2959 96.3056 55.3405 93.6189 53.8228C92.8396 53.3825 91.9786 52.9852 91.0491 52.639C91.5539 54.7029 91.8516 56.9701 91.8976 59.3494ZM89.6123 52.1612C90.2144 54.3151 90.5784 56.7528 90.6307 59.3494H87.8958C85.4808 58.3808 83.5569 56.4044 82.6142 53.9236V51.1151C85.1421 51.1688 87.5154 51.5427 89.6123 52.1612ZM90.6281 51.1177C91.9435 51.5482 93.1537 52.0749 94.2295 52.6826C95.5613 53.435 96.7114 54.328 97.5947 55.3341C96.0479 49.8631 91.8495 45.5507 86.5233 43.9618C87.5028 44.8692 88.3721 46.0505 89.1047 47.4186C89.6963 48.5236 90.2091 49.7666 90.6281 51.1177ZM82.6142 43.3469C84.6134 43.6359 86.517 45.286 87.9947 48.0457C88.4233 48.8462 88.81 49.7305 89.1471 50.6854C87.1378 50.1668 84.9306 49.861 82.6142 49.8137V43.3469Z" fill="#1B1B1B"/>
</g>
<defs>
<clipPath id="clip0_2_237">
<rect width="92" height="36" fill="white" transform="translate(64 42)"/>
</clipPath>
</defs>
</svg>
