<svg width="220" height="120" viewBox="0 0 220 120" fill="none" xmlns="http://www.w3.org/2000/svg">
<g clip-path="url(#clip0_2_251)">
<path d="M82.9288 66.762H92.547V63.8477H86.3473V52.8706H82.9288V66.762Z" fill="#1B1B1B"/>
<path d="M98.2454 64.8193C96.8742 64.8193 96.1596 63.6147 96.1596 61.8079C96.1596 60.001 96.8742 58.777 98.2454 58.777C99.6167 58.777 100.351 60.001 100.351 61.8079C100.351 63.6147 99.6167 64.8193 98.2454 64.8193ZM98.2647 67.073C101.451 67.073 103.537 64.7999 103.537 61.8079C103.537 58.8159 101.451 56.5427 98.2647 56.5427C95.0973 56.5427 92.9728 58.8159 92.9728 61.8079C92.9728 64.7999 95.0973 67.073 98.2647 67.073Z" fill="#1B1B1B"/>
<path d="M109.053 70.2009C110.521 70.2009 111.815 69.8706 112.684 69.0935C113.476 68.3746 113.998 67.2866 113.998 65.7906V56.8146H110.985V57.8832H110.946C110.367 57.0478 109.478 56.5232 108.165 56.5232C105.712 56.5232 104.013 58.5826 104.013 61.4969C104.013 64.5472 106.079 66.2181 108.3 66.2181C109.498 66.2181 110.251 65.7323 110.83 65.0718H110.908V66.0626C110.908 67.2672 110.347 67.9666 109.015 67.9666C107.972 67.9666 107.45 67.5198 107.277 66.9952H104.225C104.534 69.074 106.33 70.2009 109.053 70.2009ZM109.034 63.8672C107.856 63.8672 107.083 62.8958 107.083 61.3998C107.083 59.8843 107.856 58.9129 109.034 58.9129C110.347 58.9129 111.043 60.0398 111.043 61.3803C111.043 62.7792 110.405 63.8672 109.034 63.8672Z" fill="#1B1B1B"/>
<path d="M120.193 64.8193C118.821 64.8193 118.107 63.6147 118.107 61.8079C118.107 60.001 118.821 58.777 120.193 58.777C121.564 58.777 122.298 60.001 122.298 61.8079C122.298 63.6147 121.564 64.8193 120.193 64.8193ZM120.212 67.073C123.399 67.073 125.485 64.7999 125.485 61.8079C125.485 58.8159 123.399 56.5427 120.212 56.5427C117.045 56.5427 114.92 58.8159 114.92 61.8079C114.92 64.7999 117.045 67.073 120.212 67.073Z" fill="#1B1B1B"/>
<path d="M126.404 66.762H129.552V56.8146H126.404V66.762ZM126.404 55.4352H129.552V52.8706H126.404V55.4352Z" fill="#1B1B1B"/>
<path d="M130.918 70.0455H134.066V65.7323H134.105C134.723 66.5678 135.631 67.0729 136.905 67.0729C139.493 67.0729 141.212 65.0135 141.212 61.7883C141.212 58.7963 139.609 56.5232 136.983 56.5232C135.631 56.5232 134.665 57.1255 133.989 58.0192H133.931V56.8146H130.918V70.0455ZM136.094 64.6249C134.742 64.6249 133.97 63.5175 133.97 61.9049C133.97 60.2923 134.665 59.0683 136.036 59.0683C137.388 59.0683 138.026 60.1952 138.026 61.9049C138.026 63.5952 137.292 64.6249 136.094 64.6249Z" fill="#1B1B1B"/>
<path d="M146.338 67.0729C148.926 67.0729 150.838 65.9461 150.838 63.7701C150.838 61.2249 148.791 60.7781 147.052 60.4866C145.797 60.2535 144.677 60.1563 144.677 59.4569C144.677 58.8352 145.275 58.5438 146.048 58.5438C146.917 58.5438 147.516 58.8158 147.632 59.7095H150.529C150.374 57.7472 148.868 56.5232 146.067 56.5232C143.73 56.5232 141.799 57.6112 141.799 59.7095C141.799 62.0409 143.634 62.5072 145.353 62.7986C146.666 63.0318 147.864 63.1289 147.864 64.0226C147.864 64.6638 147.265 65.0135 146.318 65.0135C145.275 65.0135 144.619 64.5278 144.503 63.5369H141.529C141.625 65.7323 143.441 67.0729 146.338 67.0729Z" fill="#1B1B1B"/>
<path d="M155.114 67.0536C156.485 67.0536 157.355 66.5096 158.069 65.5381H158.127V66.7621H161.14V56.8147H157.992V62.3713C157.992 63.5564 157.335 64.3724 156.254 64.3724C155.249 64.3724 154.767 63.7701 154.767 62.6821V56.8147H151.638V63.3427C151.638 65.5576 152.835 67.0536 155.114 67.0536Z" fill="#1B1B1B"/>
<path d="M162.509 66.7621H165.657V61.1861C165.657 60.0009 166.236 59.1655 167.221 59.1655C168.168 59.1655 168.612 59.7872 168.612 60.8558V66.7621H171.76V61.1861C171.76 60.0009 172.32 59.1655 173.325 59.1655C174.271 59.1655 174.715 59.7872 174.715 60.8558V66.7621H177.863V60.2923C177.863 58.0581 176.743 56.5232 174.503 56.5232C173.228 56.5232 172.166 57.0672 171.393 58.2718H171.355C170.852 57.2032 169.867 56.5232 168.573 56.5232C167.144 56.5232 166.198 57.2032 165.58 58.2329H165.522V56.8146H162.509V66.7621Z" fill="#1B1B1B"/>
<path fill-rule="evenodd" clip-rule="evenodd" d="M58.6453 43.7788C67.708 43.7788 75.0548 51.1693 75.0548 60.286C75.0548 69.4028 67.708 76.7934 58.6453 76.7934C49.5825 76.7934 42.2357 69.4028 42.2357 60.286C42.2357 51.1693 49.5825 43.7788 58.6453 43.7788ZM74.425 60.286C74.425 51.5193 67.3601 44.4124 58.6453 44.4124C57.9423 44.4124 57.2501 44.4586 56.5714 44.5482C57.0099 44.5097 57.4536 44.49 57.902 44.49C66.2296 44.49 72.9804 51.281 72.9804 59.6581C72.9804 68.0351 66.2296 74.8261 57.902 74.8261C50.0181 74.8261 43.5474 68.7394 42.8804 60.9825C43.2427 69.4261 50.1622 76.1597 58.6453 76.1597C67.3601 76.1597 74.425 69.0528 74.425 60.286ZM72.3505 59.6581C72.3505 51.6308 65.8818 45.1235 57.902 45.1235C57.2541 45.1235 56.6161 45.1664 55.9908 45.2496C56.3758 45.217 56.7654 45.2003 57.1588 45.2003C64.7512 45.2003 70.9059 51.3918 70.9059 59.0292C70.9059 66.6668 64.7512 72.8582 57.1588 72.8582C49.9801 72.8582 44.0866 67.3229 43.4658 60.2637C43.7814 68.01 50.124 74.1926 57.902 74.1926C65.8818 74.1926 72.3505 67.6852 72.3505 59.6581ZM57.1588 45.8339C64.4033 45.8339 70.2762 51.7417 70.2762 59.0292C70.2762 66.3168 64.4033 72.2246 57.1588 72.2246C50.0823 72.2246 44.3144 66.5874 44.051 59.5334C44.6197 65.9003 49.9385 70.8901 56.4158 70.8901C63.2723 70.8901 68.8308 65.2987 68.8308 58.4012C68.8308 51.5037 63.2723 45.9123 56.4158 45.9123C56.061 45.9123 55.7098 45.9273 55.3626 45.9566C55.9499 45.8757 56.5495 45.8339 57.1588 45.8339ZM68.2009 58.4012C68.2009 51.8537 62.9245 46.5459 56.4158 46.5459C55.8658 46.5459 55.3246 46.5837 54.7948 46.6571C55.0841 46.6343 55.3765 46.6227 55.6717 46.6227C61.7931 46.6227 66.7555 51.6146 66.7555 57.7725C66.7555 63.9303 61.7931 68.9222 55.6717 68.9222C49.9101 68.9222 45.1753 64.4998 44.6386 58.8454C44.8708 65.1871 50.0547 70.2566 56.4158 70.2566C62.9245 70.2566 68.2009 64.9488 68.2009 58.4012ZM55.6717 47.2562C61.4453 47.2562 66.1257 51.9645 66.1257 57.7725C66.1257 63.5804 61.4453 68.2887 55.6717 68.2887C50.0119 68.2887 45.4026 63.7641 45.2232 58.1144C45.7077 63.0769 49.868 66.9542 54.9285 66.9542C60.3148 66.9542 64.6811 62.5618 64.6811 57.1436C64.6811 51.7254 60.3148 47.333 54.9285 47.333C54.6816 47.333 54.4367 47.3423 54.1943 47.3604C54.677 47.2918 55.1702 47.2562 55.6717 47.2562ZM64.0513 57.1436C64.0513 52.0753 59.9669 47.9666 54.9285 47.9666C54.4686 47.9666 54.0167 48.0008 53.575 48.0669C53.7766 48.0524 53.9801 48.045 54.1854 48.045C58.8359 48.045 62.6059 51.8374 62.6059 56.5156C62.6059 61.1938 58.8359 64.9862 54.1854 64.9862C49.8276 64.9862 46.243 61.6562 45.809 57.3878C45.9377 62.3433 49.9714 66.3207 54.9285 66.3207C59.9669 66.3207 64.0513 62.212 64.0513 57.1436ZM54.1854 48.6786C58.4881 48.6786 61.9761 52.1873 61.9761 56.5156C61.9761 60.844 58.4881 64.3527 54.1854 64.3527C49.9375 64.3527 46.4836 60.9327 46.3964 56.6805C46.7888 60.2456 49.7936 63.0183 53.4423 63.0183C57.3575 63.0183 60.5315 59.8254 60.5315 55.8868C60.5315 51.9483 57.3575 48.7554 53.4423 48.7554C53.2925 48.7554 53.1439 48.76 52.9964 48.7692C53.3841 48.7095 53.7811 48.6786 54.1854 48.6786ZM59.9017 55.8868C59.9017 52.2981 57.0097 49.3889 53.4423 49.3889C53.084 49.3889 52.7326 49.4183 52.3902 49.4747C52.4922 49.4693 52.5949 49.4665 52.6983 49.4665C55.8783 49.4665 58.4562 52.0598 58.4562 55.2588C58.4562 58.4578 55.8783 61.0511 52.6983 61.0511C49.7578 61.0511 47.3322 58.8338 46.9833 55.9707C47.028 59.5208 49.9026 62.3847 53.4423 62.3847C57.0097 62.3847 59.9017 59.4755 59.9017 55.8868ZM52.6983 50.1001C55.5305 50.1001 57.8264 52.4097 57.8264 55.2588C57.8264 58.1079 55.5305 60.4175 52.6983 60.4175C49.866 60.4175 47.5701 58.1079 47.5701 55.2588C47.5701 55.252 47.5701 55.2451 47.5701 55.2383C47.865 57.4095 49.7158 59.0823 51.9551 59.0823C54.3995 59.0823 56.3811 57.089 56.3811 54.63C56.3811 52.171 54.3995 50.1777 51.9551 50.1777C51.8998 50.1777 51.8448 50.1787 51.79 50.1808C52.0848 50.1278 52.3883 50.1001 52.6983 50.1001ZM55.7512 54.63C55.7512 52.521 54.0517 50.8113 51.9551 50.8113C49.8585 50.8113 48.1589 52.521 48.1589 54.63C48.1589 56.739 49.8585 58.4487 51.9551 58.4487C54.0517 58.4487 55.7512 56.739 55.7512 54.63Z" fill="#1B1B1B"/>
</g>
<defs>
<clipPath id="clip0_2_251">
<rect width="136" height="34" fill="white" transform="translate(42 43)"/>
</clipPath>
</defs>
</svg>
