<svg width="220" height="120" viewBox="0 0 220 120" fill="none" xmlns="http://www.w3.org/2000/svg">
<path d="M59.0204 58.2624C58.6143 58.6691 58.3034 59.16 58.1096 59.6999C57.9159 60.24 57.8442 60.8159 57.8996 61.3866L57.8804 61.3674C57.9374 62.0393 57.8463 62.7154 57.6137 63.3487C57.3811 63.9818 57.0125 64.5569 56.5337 65.0337C56.0547 65.5104 55.4771 65.8774 54.841 66.1089C54.205 66.3404 53.5259 66.4311 52.8511 66.3744L52.8704 66.3936C52.0631 66.3188 51.2524 66.4936 50.5486 66.8944C49.8449 67.2951 49.2824 67.9021 48.9379 68.6328C48.5934 69.3635 48.4836 70.182 48.6235 70.9771C48.7636 71.7721 49.1464 72.5048 49.7199 73.0753C50.2935 73.6457 51.0297 74.0262 51.8284 74.1648C52.6271 74.3034 53.4492 74.1933 54.1829 73.8498C54.9165 73.5061 55.5257 72.9457 55.9276 72.2447C56.3295 71.5436 56.5044 70.7364 56.4286 69.9328L56.4489 69.952C56.3919 69.2802 56.4829 68.604 56.7155 67.9707C56.9481 67.3376 57.3168 66.7625 57.7956 66.2857C58.2745 65.809 58.8521 65.442 59.4881 65.2105C60.1242 64.9789 60.8033 64.8883 61.4782 64.945L61.4579 64.9258C62.1172 64.9848 62.781 64.8772 63.3875 64.6129C63.9939 64.3485 64.5236 63.9361 64.9274 63.4137C65.3311 62.8914 65.5959 62.2759 65.6971 61.6246C65.7983 60.9732 65.7327 60.3069 65.5065 59.6874C65.2802 59.068 64.9005 58.5155 64.4026 58.081C63.9047 57.6466 63.3047 57.3443 62.6582 57.2022C62.0117 57.0601 61.3396 57.0827 60.7042 57.268C60.0689 57.4534 59.4908 57.7954 59.0236 58.2624H59.0204Z" fill="#1B1B1B"/>
<path d="M51.1164 63.8785L51.0961 63.8593C51.6696 63.9168 52.2488 63.8467 52.7919 63.654C53.3349 63.4614 53.8282 63.1511 54.236 62.7454C54.6437 62.3398 54.9559 61.8489 55.1497 61.3084C55.3436 60.768 55.4145 60.1914 55.3571 59.6203L55.3775 59.6395C55.3205 58.9676 55.4116 58.2916 55.6441 57.6583C55.8767 57.0251 56.2454 56.4501 56.7242 55.9733C57.2031 55.4966 57.7807 55.1296 58.4167 54.8981C59.0528 54.6665 59.7319 54.5759 60.4068 54.6326L60.3864 54.6134C61.1938 54.6889 62.0047 54.5146 62.7089 54.1143C63.4131 53.714 63.976 53.1072 64.321 52.3767C64.666 51.6462 64.7763 50.8275 64.6368 50.0323C64.4973 49.2371 64.1148 48.5041 63.5414 47.9333C62.968 47.3625 62.2318 46.9816 61.433 46.8427C60.6343 46.7038 59.8119 46.8136 59.0781 47.1571C58.3443 47.5005 57.7349 48.061 57.3328 48.762C56.9306 49.463 56.7556 50.2705 56.8314 51.0742L56.8121 51.0539C56.8693 51.7258 56.7784 52.402 56.5459 53.0353C56.3134 53.6686 55.9447 54.2438 55.4659 54.7206C54.987 55.1973 54.4093 55.5643 53.7731 55.7958C53.1369 56.0273 52.4578 56.1177 51.7829 56.0609L51.8021 56.0811C51.2286 56.0236 50.6493 56.0937 50.1063 56.2864C49.5633 56.4789 49.07 56.7893 48.6622 57.1949C48.2544 57.6006 47.9423 58.0915 47.7484 58.632C47.5546 59.1724 47.4838 59.749 47.5411 60.3201L47.5218 60.3009C47.5786 60.9726 47.4874 61.6487 47.2548 62.2819C47.0221 62.9149 46.6535 63.49 46.1747 63.9667C45.6958 64.4434 45.1183 64.8103 44.4823 65.042C43.8464 65.2736 43.1673 65.3643 42.4925 65.3078L42.5118 65.327C41.7045 65.2515 40.8934 65.4258 40.1893 65.8261C39.4852 66.2264 38.9222 66.8331 38.5772 67.5637C38.2321 68.2942 38.1219 69.1129 38.2614 69.9081C38.4009 70.7033 38.7835 71.4363 39.3568 72.0071C39.9302 72.578 40.6665 72.9588 41.4652 73.0977C42.264 73.2365 43.0863 73.1268 43.8201 72.7833C44.5539 72.4398 45.1634 71.8794 45.5655 71.1784C45.9676 70.4773 46.1426 69.6699 46.0668 68.8662L46.0871 68.8854C46.0301 68.2135 46.1212 67.5374 46.3538 66.9042C46.5863 66.271 46.955 65.696 47.4338 65.2192C47.9128 64.7425 48.4904 64.3754 49.1264 64.144C49.7625 63.9124 50.4415 63.8217 51.1164 63.8785Z" fill="#1B1B1B"/>
<path d="M43.9357 61.7377C44.3418 61.3311 44.6527 60.8402 44.8463 60.3001C45.0398 59.7601 45.1112 59.1841 45.0554 58.6134L45.0757 58.6326C45.0187 57.9606 45.1097 57.2842 45.3425 56.6508C45.5752 56.0175 45.944 55.4423 46.4231 54.9655C46.9023 54.4887 47.4801 54.1218 48.1164 53.8904C48.7527 53.659 49.4321 53.5686 50.1071 53.6257L50.0868 53.6065C50.8938 53.6817 51.7045 53.5074 52.4084 53.1071C53.1122 52.7069 53.6748 52.1002 54.0197 51.3699C54.3645 50.6396 54.4746 49.8212 54.3351 49.0263C54.1956 48.2314 53.8131 47.4987 53.24 46.9281C52.6669 46.3575 51.9308 45.9767 51.1324 45.8378C50.334 45.6989 49.5119 45.8086 48.7784 46.1519C48.0448 46.4952 47.4354 47.0553 47.0334 47.756C46.6313 48.4567 46.4561 49.2638 46.5318 50.0673L46.5125 50.0481C46.5695 50.7199 46.4784 51.396 46.2458 52.0292C46.0132 52.6625 45.6447 53.2375 45.1658 53.7143C44.6869 54.191 44.1093 54.558 43.4732 54.7895C42.8372 55.0211 42.1581 55.1117 41.4832 55.055L41.5025 55.0742C40.8431 55.0153 40.1795 55.1232 39.573 55.3876C38.9666 55.652 38.4371 56.0646 38.0335 56.5871C37.6299 57.1094 37.3652 57.7249 37.2641 58.3762C37.163 59.0276 37.2287 59.6938 37.455 60.3131C37.6814 60.9325 38.0611 61.485 38.5591 61.9193C39.057 62.3538 39.657 62.656 40.3035 62.798C40.9499 62.94 41.622 62.9173 42.2573 62.732C42.8926 62.5466 43.4706 62.2047 43.9378 61.7377H43.9357Z" fill="#1B1B1B"/>
<path d="M77.1254 51.0986H80.3075V66.5152H77.1254V51.0986Z" fill="#1B1B1B"/>
<path d="M82.1096 61.2364C82.1053 60.1285 82.4312 59.0442 83.0462 58.1209C83.6612 57.1976 84.5376 56.4767 85.5645 56.0497C86.5913 55.6226 87.7223 55.5086 88.8143 55.722C89.9063 55.9355 90.9101 56.4667 91.6986 57.2485C92.4871 58.0303 93.0247 59.0275 93.2435 60.1138C93.4623 61.2001 93.3523 62.3266 92.9274 63.3506C92.5026 64.3745 91.7821 65.25 90.8571 65.8659C89.932 66.4819 88.8443 66.8108 87.7314 66.8108C86.9928 66.8192 86.2598 66.6809 85.5754 66.4039C84.891 66.127 84.2689 65.7171 83.7455 65.1982C83.222 64.6791 82.8078 64.0614 82.527 63.3812C82.246 62.701 82.1042 61.9718 82.1096 61.2364ZM90.1711 61.2364C90.1578 60.7588 90.0034 60.2958 89.7273 59.9051C89.4511 59.5145 89.0654 59.2134 88.6184 59.0399C88.1713 58.8662 87.6828 58.8276 87.2138 58.929C86.7449 59.0303 86.3163 59.2669 85.9817 59.6094C85.6472 59.9518 85.4213 60.3849 85.3327 60.8544C85.244 61.3238 85.2962 61.809 85.4829 62.2491C85.6697 62.6892 85.9825 63.0646 86.3824 63.3286C86.7824 63.5926 87.2516 63.7334 87.7314 63.7334C88.06 63.7422 88.3869 63.683 88.6915 63.5597C88.996 63.4364 89.2716 63.2516 89.5008 63.0171C89.73 62.7824 89.9079 62.503 90.0232 62.1966C90.1386 61.8901 90.189 61.5632 90.1711 61.2364Z" fill="#1B1B1B"/>
<path d="M106.036 55.9562V65.9829C106.036 69.5306 103.256 71.0303 100.435 71.0303C99.4421 71.1044 98.4475 70.9046 97.5607 70.4531C96.674 70.0014 95.9293 69.3154 95.4082 68.4703L98.1232 66.9077C98.3422 67.3482 98.6912 67.7116 99.1233 67.9494C99.5555 68.187 100.05 68.2877 100.541 68.2378C100.855 68.2811 101.175 68.2536 101.477 68.1573C101.779 68.0609 102.055 67.8983 102.285 67.6814C102.515 67.4645 102.693 67.1989 102.806 66.904C102.919 66.6093 102.964 66.293 102.938 65.9786V65.0133C102.566 65.4671 102.091 65.8278 101.553 66.0662C101.015 66.3046 100.429 66.4141 99.8407 66.3861C98.4412 66.3421 97.1138 65.7578 96.1395 64.7566C95.1651 63.7556 94.6203 62.4162 94.6203 61.0223C94.6203 59.6284 95.1651 58.2891 96.1395 57.288C97.1138 56.2869 98.4412 55.7025 99.8407 55.6586C100.429 55.6305 101.015 55.7401 101.553 55.9785C102.091 56.2169 102.566 56.5775 102.938 57.0314V55.9541L106.036 55.9562ZM102.939 61.0239C102.961 60.5134 102.828 60.0081 102.559 59.5733C102.289 59.1383 101.895 58.7936 101.427 58.5836C100.959 58.3735 100.439 58.3077 99.9332 58.3945C99.4274 58.4813 98.9593 58.7168 98.589 59.0709C98.2188 59.4248 97.9635 59.8809 97.8558 60.3805C97.7482 60.8801 97.7932 61.4005 97.9852 61.8744C98.1771 62.3483 98.5071 62.7543 98.9327 63.0399C99.3583 63.3256 99.86 63.4779 100.373 63.4773C100.708 63.5005 101.043 63.4538 101.358 63.3401C101.673 63.2264 101.961 63.0481 102.203 62.8171C102.444 62.586 102.635 62.307 102.762 61.9981C102.889 61.6893 102.949 61.3575 102.939 61.0239Z" fill="#1B1B1B"/>
<path d="M107.838 61.2364C107.833 60.1285 108.159 59.0442 108.774 58.1209C109.389 57.1976 110.266 56.4767 111.293 56.0497C112.32 55.6226 113.451 55.5086 114.543 55.722C115.635 55.9355 116.638 56.4667 117.427 57.2485C118.215 58.0303 118.753 59.0275 118.972 60.1138C119.19 61.2001 119.08 62.3266 118.656 63.3506C118.231 64.3745 117.51 65.25 116.585 65.8659C115.66 66.4819 114.573 66.8108 113.46 66.8108C112.721 66.8192 111.988 66.6809 111.304 66.4039C110.619 66.127 109.997 65.7171 109.474 65.1982C108.95 64.6791 108.536 64.0614 108.255 63.3812C107.974 62.701 107.832 61.9718 107.838 61.2364ZM115.899 61.2364C115.886 60.7588 115.732 60.2958 115.455 59.9051C115.179 59.5145 114.794 59.2134 114.347 59.0399C113.899 58.8662 113.411 58.8276 112.942 58.929C112.473 59.0303 112.045 59.2669 111.71 59.6094C111.375 59.9518 111.15 60.3849 111.061 60.8544C110.972 61.3238 111.024 61.809 111.211 62.2491C111.398 62.6892 111.711 63.0646 112.111 63.3286C112.511 63.5926 112.98 63.7334 113.46 63.7334C113.788 63.7422 114.115 63.683 114.42 63.5597C114.724 63.4364 115 63.2516 115.229 63.0171C115.458 62.7824 115.636 62.503 115.751 62.1966C115.867 61.8901 115.917 61.5632 115.899 61.2364Z" fill="#1B1B1B"/>
<path d="M120.565 53.1264C120.565 52.7504 120.677 52.3829 120.887 52.0704C121.097 51.7578 121.395 51.5141 121.744 51.3703C122.093 51.2264 122.477 51.1888 122.847 51.2621C123.217 51.3355 123.558 51.5165 123.825 51.7823C124.092 52.0481 124.274 52.3868 124.347 52.7556C124.421 53.1243 124.383 53.5065 124.239 53.8538C124.094 54.2011 123.849 54.498 123.535 54.7069C123.221 54.9157 122.852 55.0272 122.475 55.0272C121.97 55.0222 121.487 54.8204 121.13 54.4649C120.773 54.1095 120.57 53.629 120.565 53.1264ZM120.887 55.9563H124.07V66.5163H120.882L120.887 55.9563Z" fill="#1B1B1B"/>
<path d="M137.81 61.2364C137.847 61.9343 137.745 62.6325 137.509 63.291C137.274 63.9494 136.911 64.5551 136.439 65.0732C135.968 65.5912 135.399 66.0114 134.764 66.3097C134.129 66.6078 133.441 66.7781 132.74 66.8108C132.15 66.8428 131.561 66.7438 131.014 66.521C130.468 66.298 129.978 65.9569 129.58 65.5222V70.7393H126.398V55.9564H129.58V56.9484C129.978 56.514 130.468 56.1731 131.015 55.9505C131.561 55.7278 132.15 55.6289 132.74 55.6609C133.441 55.6934 134.129 55.8637 134.764 56.1619C135.399 56.4602 135.969 56.8804 136.44 57.3986C136.911 57.9168 137.275 58.5227 137.51 59.1813C137.745 59.8399 137.847 60.5384 137.81 61.2364ZM134.628 61.2364C134.615 60.7422 134.457 60.2626 134.172 59.8576C133.887 59.4527 133.489 59.1404 133.026 58.9599C132.564 58.7793 132.059 58.7385 131.573 58.8426C131.088 58.9466 130.644 59.1908 130.297 59.5447C129.95 59.8988 129.716 60.3466 129.624 60.8324C129.532 61.3182 129.586 61.8202 129.778 62.2757C129.971 62.7313 130.295 63.12 130.709 63.3934C131.123 63.6667 131.608 63.8125 132.105 63.8124C132.446 63.8275 132.786 63.7707 133.103 63.6457C133.42 63.5207 133.708 63.3303 133.946 63.0871C134.184 62.8438 134.368 62.5533 134.486 62.2344C134.603 61.9154 134.652 61.5753 134.628 61.2364Z" fill="#1B1B1B"/>
<path d="M147.63 63.3472C147.63 65.776 145.509 66.8106 143.219 66.8106C142.293 66.894 141.364 66.6993 140.551 66.2512C139.737 65.8032 139.078 65.1226 138.658 64.2976L141.414 62.7349C141.526 63.1162 141.765 63.4481 142.093 63.6747C142.42 63.9015 142.817 64.0096 143.214 63.9808C143.977 63.9808 144.36 63.7482 144.36 63.3269C144.36 62.1642 139.141 62.7776 139.141 59.1242C139.141 56.8213 141.093 55.6608 143.299 55.6608C144.128 55.6346 144.949 55.8305 145.676 56.2278C146.404 56.6252 147.011 57.2096 147.435 57.92L144.72 59.377C144.601 59.1004 144.403 58.8648 144.15 58.6996C143.897 58.5344 143.601 58.4469 143.299 58.448C142.747 58.448 142.408 58.6613 142.408 59.0389C142.412 60.2432 147.63 59.44 147.63 63.3472Z" fill="#1B1B1B"/>
<path d="M159.254 55.9563V66.5163H156.071V65.5232C155.704 65.9614 155.238 66.3067 154.711 66.5307C154.184 66.7547 153.611 66.851 153.039 66.8118C150.896 66.8118 149.075 65.2918 149.075 62.4384V55.9563H152.257V61.9744C152.23 62.226 152.259 62.4802 152.342 62.7195C152.423 62.9589 152.557 63.1775 152.733 63.3602C152.909 63.543 153.122 63.6854 153.359 63.7776C153.594 63.8699 153.848 63.9098 154.102 63.8944C155.269 63.8944 156.075 63.2192 156.075 61.7195V55.9595L159.254 55.9563Z" fill="#1B1B1B"/>
<path d="M177.5 60.0319V66.5151H174.318V60.3061C174.318 59.2501 173.809 58.5749 172.791 58.5749C171.73 58.5749 171.136 59.3141 171.136 60.5599V66.5151H167.955V60.3061C167.955 59.2501 167.446 58.5749 166.427 58.5749C165.366 58.5749 164.772 59.3141 164.772 60.5599V66.5151H161.59V55.9551H164.772V56.9258C165.102 56.4952 165.535 56.1536 166.031 55.9325C166.529 55.7113 167.073 55.6175 167.615 55.6597C168.159 55.6331 168.701 55.7476 169.189 55.9917C169.675 56.2358 170.09 56.6014 170.393 57.0527C170.746 56.5805 171.213 56.2051 171.751 55.9614C172.289 55.7178 172.88 55.614 173.469 55.6597C175.905 55.6607 177.5 57.3919 177.5 60.0319Z" fill="#1B1B1B"/>
<path d="M180.191 55.8913C181.495 55.8913 182.553 54.8387 182.553 53.5404C182.553 52.242 181.495 51.1895 180.191 51.1895C178.887 51.1895 177.83 52.242 177.83 53.5404C177.83 54.8387 178.887 55.8913 180.191 55.8913Z" fill="#1B1B1B"/>
</svg>
