<svg width="220" height="120" viewBox="0 0 220 120" fill="none" xmlns="http://www.w3.org/2000/svg">
<path d="M62.5852 64.0166H65.4181V77.9073H62.5852V64.0166Z" fill="#1B1B1B"/>
<path d="M67.0612 73.148C67.0593 72.1503 67.3535 71.1744 67.9064 70.3439C68.4594 69.5134 69.2462 68.8656 70.1675 68.4825C71.0887 68.0994 72.1029 67.9982 73.0817 68.1917C74.0605 68.3852 74.9599 68.8647 75.666 69.5696C76.3722 70.2744 76.8534 71.1729 77.0487 72.1513C77.2441 73.1297 77.1448 74.1441 76.7634 75.0661C76.382 75.988 75.7357 76.7761 74.9062 77.3306C74.0768 77.8852 73.1015 78.1811 72.1038 78.1811C71.4402 78.1887 70.7819 78.0638 70.1673 77.8136C69.5527 77.5635 68.9942 77.1932 68.5246 76.7244C68.0549 76.2557 67.6836 75.6979 67.4323 75.0837C67.181 74.4696 67.0548 73.8115 67.0612 73.148ZM74.2945 73.148C74.2834 72.7173 74.1455 72.2994 73.8981 71.9467C73.6507 71.5939 73.3048 71.322 72.9036 71.1648C72.5024 71.0076 72.0638 70.9723 71.6427 71.0631C71.2215 71.1539 70.8365 71.3669 70.5357 71.6754C70.235 71.9839 70.0319 72.3743 69.9518 72.7977C69.8718 73.221 69.9184 73.6586 70.0857 74.0556C70.2531 74.4526 70.5338 74.7915 70.8927 75.0298C71.2517 75.2681 71.6729 75.3953 72.1038 75.3954C72.3985 75.4037 72.6918 75.3508 72.9651 75.24C73.2384 75.1292 73.4858 74.963 73.6917 74.7518C73.8975 74.5406 74.0574 74.2891 74.1611 74.0131C74.2649 73.737 74.3103 73.4425 74.2945 73.148Z" fill="#1B1B1B"/>
<path d="M88.5346 68.3885V77.4349C88.5346 80.6361 86.0322 81.9865 83.5015 81.9865C82.6116 82.0527 81.7206 81.8727 80.9261 81.4663C80.1316 81.0599 79.4643 80.4427 78.9972 79.6824L81.4335 78.2754C81.6268 78.665 81.9327 78.9877 82.3115 79.2015C82.6903 79.4153 83.1246 79.5105 83.5582 79.4746C83.8434 79.5222 84.1358 79.5036 84.4128 79.4202C84.6898 79.3369 84.9439 79.1911 85.1556 78.994C85.3672 78.7969 85.5308 78.5538 85.6337 78.2835C85.7366 78.0132 85.776 77.7229 85.7489 77.4349V76.5567C85.4159 76.9665 84.9909 77.292 84.5086 77.5069C84.0263 77.7218 83.5001 77.8201 82.9727 77.7938C81.6904 77.7938 80.4607 77.2844 79.5539 76.3777C78.6472 75.471 78.1378 74.2412 78.1378 72.9589C78.1378 71.6766 78.6472 70.4469 79.5539 69.5402C80.4607 68.6335 81.6904 68.1241 82.9727 68.1241C83.4998 68.1 84.0252 68.1993 84.5072 68.414C84.9892 68.6288 85.4144 68.9531 85.7489 69.3611V68.4168L88.5346 68.3885ZM85.7489 72.9589C85.7678 72.4997 85.6488 72.0453 85.4074 71.6541C85.1659 71.263 84.813 70.953 84.394 70.7641C83.975 70.5751 83.509 70.5158 83.056 70.5938C82.603 70.6717 82.1837 70.8834 81.852 71.2015C81.5202 71.5197 81.2912 71.9298 81.1944 72.3791C81.0975 72.8284 81.1373 73.2965 81.3086 73.723C81.4799 74.1496 81.7748 74.5151 82.1555 74.7727C82.5362 75.0304 82.9852 75.1682 83.4448 75.1686C83.7449 75.1898 84.046 75.148 84.3288 75.0457C84.6117 74.9434 84.87 74.7831 85.0871 74.5749C85.3041 74.3667 85.4752 74.1153 85.5892 73.837C85.7032 73.5587 85.7576 73.2596 85.7489 72.9589Z" fill="#1B1B1B"/>
<path d="M90.1683 73.148C90.1664 72.1503 90.4606 71.1744 91.0135 70.3439C91.5665 69.5134 92.3534 68.8656 93.2746 68.4825C94.1958 68.0994 95.21 67.9982 96.1888 68.1917C97.1676 68.3852 98.067 68.8647 98.7732 69.5696C99.4793 70.2744 99.9605 71.1729 100.156 72.1513C100.351 73.1297 100.252 74.1441 99.8705 75.0661C99.4891 75.988 98.8428 76.7761 98.0134 77.3306C97.1839 77.8852 96.2086 78.1811 95.2109 78.1811C94.5474 78.1887 93.889 78.0638 93.2744 77.8136C92.6598 77.5635 92.1013 77.1932 91.6317 76.7244C91.1621 76.2557 90.7907 75.6979 90.5394 75.0837C90.2881 74.4696 90.1619 73.8115 90.1683 73.148ZM97.4017 73.148C97.3905 72.7173 97.2526 72.2994 97.0052 71.9467C96.7578 71.5939 96.4119 71.322 96.0107 71.1648C95.6096 71.0076 95.171 70.9723 94.7498 71.0631C94.3286 71.1539 93.9436 71.3669 93.6428 71.6754C93.3421 71.9839 93.139 72.3743 93.0589 72.7977C92.9789 73.221 93.0255 73.6586 93.1928 74.0556C93.3602 74.4526 93.6409 74.7915 93.9998 75.0298C94.3588 75.2681 94.78 75.3953 95.2109 75.3954C95.5041 75.401 95.7953 75.3462 96.0664 75.2342C96.3374 75.1222 96.5825 74.9556 96.7863 74.7447C96.9901 74.5339 97.1482 74.2832 97.2509 74.0085C97.3535 73.7338 97.3984 73.4408 97.3828 73.148H97.4017Z" fill="#1B1B1B"/>
<path d="M101.566 65.839C101.566 65.4991 101.667 65.1668 101.856 64.8842C102.045 64.6016 102.313 64.3813 102.627 64.2512C102.941 64.1211 103.287 64.0871 103.62 64.1534C103.953 64.2197 104.26 64.3834 104.5 64.6237C104.74 64.8641 104.904 65.1703 104.97 65.5037C105.037 65.8371 105.003 66.1827 104.873 66.4967C104.743 66.8107 104.522 67.0792 104.24 67.268C103.957 67.4568 103.625 67.5576 103.285 67.5576C102.83 67.5552 102.394 67.3733 102.072 67.0515C101.75 66.7298 101.569 66.2941 101.566 65.839ZM101.859 68.3886H104.692V77.9072H101.859V68.3886Z" fill="#1B1B1B"/>
<path d="M117.043 73.148C117.077 73.7772 116.987 74.407 116.777 75.0011C116.567 75.5952 116.242 76.1419 115.819 76.6097C115.397 77.0775 114.887 77.4572 114.317 77.7269C113.748 77.9966 113.13 78.151 112.501 78.1812C111.973 78.2065 111.445 78.1157 110.956 77.915C110.466 77.7143 110.027 77.4087 109.668 77.0197V81.7412H106.835V68.3887H109.668V69.2858C110.027 68.8968 110.466 68.5912 110.956 68.3905C111.445 68.1898 111.973 68.099 112.501 68.1243C113.13 68.1545 113.746 68.3086 114.315 68.5777C114.884 68.8469 115.394 69.2257 115.816 69.6925C116.238 70.1593 116.564 70.7048 116.774 71.2978C116.985 71.8908 117.076 72.5196 117.043 73.148ZM114.21 73.148C114.199 72.7048 114.058 72.2746 113.805 71.9107C113.551 71.5469 113.197 71.2652 112.785 71.1008C112.374 70.9363 111.923 70.8962 111.488 70.9855C111.054 71.0747 110.656 71.2894 110.342 71.6029C110.029 71.9164 109.814 72.3149 109.725 72.7492C109.635 73.1835 109.676 73.6344 109.84 74.0461C110.004 74.4578 110.286 74.8123 110.65 75.0655C111.014 75.3188 111.444 75.4598 111.887 75.471C112.197 75.4907 112.506 75.4439 112.796 75.3339C113.086 75.2238 113.349 75.053 113.567 74.833C113.785 74.6129 113.954 74.3487 114.062 74.0581C114.169 73.7675 114.214 73.4572 114.191 73.148H114.21Z" fill="#1B1B1B"/>
<path d="M125.863 75.0553C125.863 77.2461 123.974 78.1809 121.897 78.1809C121.067 78.2544 120.234 78.0778 119.505 77.6739C118.777 77.27 118.186 76.6573 117.808 75.9146L120.282 74.5076C120.383 74.8511 120.598 75.1499 120.891 75.3543C121.185 75.5587 121.54 75.6565 121.897 75.6313C122.586 75.6313 122.926 75.4141 122.926 75.0364C122.926 73.9882 118.205 74.5454 118.205 71.2592C118.205 69.1817 119.961 68.1335 121.982 68.1335C122.728 68.1109 123.466 68.288 124.12 68.6467C124.774 69.0053 125.321 69.5324 125.703 70.1732L123.219 71.4764C123.109 71.227 122.93 71.0148 122.702 70.8656C122.474 70.7164 122.207 70.6366 121.935 70.6359C121.444 70.6359 121.142 70.8248 121.142 71.1742C121.179 72.2601 125.863 71.533 125.863 75.0553Z" fill="#1B1B1B"/>
<path d="M136.288 68.3887V77.9073H133.455V77.0197C133.126 77.4141 132.707 77.7249 132.235 77.9268C131.762 78.1287 131.248 78.2158 130.736 78.1812C128.847 78.1812 127.176 76.8119 127.176 74.234V68.3887H130.008V73.8185C129.984 74.0499 130.011 74.2839 130.087 74.5036C130.164 74.7233 130.289 74.9231 130.453 75.0886C130.616 75.2541 130.815 75.381 131.033 75.4602C131.252 75.5395 131.486 75.5689 131.718 75.5466C132.756 75.5466 133.484 74.9422 133.484 73.5919V68.3887H136.288Z" fill="#1B1B1B"/>
<path d="M152.662 72.0714V77.9072H149.829V72.317C149.829 71.3727 149.367 70.7494 148.46 70.7494C147.554 70.7494 146.968 71.4199 146.968 72.5436V77.9072H144.135V72.317C144.135 71.3727 143.682 70.7494 142.766 70.7494C141.85 70.7494 141.283 71.4199 141.283 72.5436V77.9072H138.451V68.3887H141.283V69.2669C141.58 68.879 141.968 68.5713 142.413 68.3718C142.858 68.1722 143.347 68.0871 143.833 68.1243C144.322 68.1005 144.808 68.2038 145.245 68.4238C145.682 68.6439 146.054 68.9734 146.326 69.3802C146.642 68.9549 147.061 68.6166 147.543 68.397C148.025 68.1774 148.555 68.0835 149.083 68.1243C151.236 68.1243 152.662 69.6918 152.662 72.0714Z" fill="#1B1B1B"/>
<path d="M155.08 68.3321C156.248 68.3321 157.195 67.385 157.195 66.2168C157.195 65.0486 156.248 64.1016 155.08 64.1016C153.912 64.1016 152.965 65.0486 152.965 66.2168C152.965 67.385 153.912 68.3321 155.08 68.3321Z" fill="#1B1B1B"/>
<path d="M94.6443 56.8115C100.115 56.8115 104.55 52.3765 104.55 46.9057C104.55 41.435 100.115 37 94.6443 37C89.1735 37 84.7385 41.435 84.7385 46.9057C84.7385 52.3765 89.1735 56.8115 94.6443 56.8115Z" fill="#1B1B1B"/>
<path d="M116.788 56.8115C122.259 56.8115 126.694 52.3765 126.694 46.9057C126.694 41.435 122.259 37 116.788 37C111.317 37 106.882 41.435 106.882 46.9057C106.882 52.3765 111.317 56.8115 116.788 56.8115Z" fill="#1B1B1B"/>
<path d="M82.4061 37H62.6041V56.802H82.4061V37Z" fill="#1B1B1B"/>
</svg>
