<svg width="220" height="120" viewBox="0 0 220 120" fill="none" xmlns="http://www.w3.org/2000/svg">
<g clip-path="url(#clip0_2_293)">
<path d="M119.312 66.6666H122.563V54.3546H119.312V66.6666ZM119.312 52.4346H122.563V49.5066H119.312V52.4346Z" fill="#1B1B1B"/>
<path d="M124.658 70.6986H127.91V65.2746H127.957C128.65 66.3306 129.774 67.0266 131.495 67.0266C134.65 67.0266 136.802 64.5066 136.802 60.5226C136.802 56.6825 134.722 54.0186 131.471 54.0186C129.798 54.0186 128.65 54.8106 127.861 55.8906H127.79V54.3546H124.658V70.6986ZM130.802 64.3146C128.865 64.3146 127.838 62.8506 127.838 60.6186C127.838 58.4106 128.65 56.6586 130.682 56.6586C132.691 56.6586 133.503 58.2906 133.503 60.6186C133.503 62.9466 132.451 64.3146 130.802 64.3146Z" fill="#1B1B1B"/>
<path d="M143.287 67.0266C146.348 67.0266 148.451 65.5386 148.451 63.0665C148.451 60.1866 146.18 59.6106 144.124 59.1786C142.379 58.8186 140.754 58.7226 140.754 57.6666C140.754 56.7786 141.59 56.2986 142.857 56.2986C144.244 56.2986 145.081 56.7786 145.224 58.0986H148.164C147.925 55.6266 146.132 54.0186 142.905 54.0186C140.108 54.0186 137.909 55.2906 137.909 57.9546C137.909 60.6426 140.06 61.2426 142.26 61.6746C143.933 62.0106 145.486 62.1306 145.486 63.3066C145.486 64.1706 144.674 64.7226 143.24 64.7226C141.781 64.7226 140.777 64.0986 140.562 62.6826H137.55C137.741 65.2986 139.726 67.0266 143.287 67.0266Z" fill="#1B1B1B"/>
<path d="M160.794 66.6668V54.3547H157.543V61.4588C157.543 63.0907 156.611 64.2427 155.081 64.2427C153.694 64.2427 153.049 63.4507 153.049 62.0108V54.3547H149.822V62.5627C149.822 65.2507 151.352 67.0028 154.077 67.0028C155.799 67.0028 156.755 66.3548 157.591 65.2268H157.663V66.6668H160.794Z" fill="#1B1B1B"/>
<path d="M162.897 66.6666H166.149V59.5146C166.149 57.8826 167.033 56.8266 168.348 56.8266C169.544 56.8266 170.237 57.5466 170.237 58.9386V66.6666H173.488V59.5146C173.488 57.8826 174.325 56.8266 175.687 56.8266C176.883 56.8266 177.576 57.5466 177.576 58.9386V66.6666H180.827V58.3866C180.827 55.6986 179.368 54.0186 176.787 54.0186C175.233 54.0186 173.942 54.8345 173.105 56.1785H173.058C172.46 54.8826 171.217 54.0186 169.663 54.0186C167.966 54.0186 166.771 54.8826 166.101 56.0105H166.029V54.3546H162.897V66.6666Z" fill="#1B1B1B"/>
<path d="M34.5746 66.6666H37.8258V49.5066H34.5746V66.6666Z" fill="#1B1B1B"/>
<path d="M45.7754 67.0266C49.5764 67.0266 52.1821 64.1946 52.1821 60.5226C52.1821 56.8505 49.5764 54.0186 45.7754 54.0186C41.9744 54.0186 39.3687 56.8505 39.3687 60.5226C39.3687 64.1946 41.9744 67.0266 45.7754 67.0266ZM45.7754 64.5306C43.7673 64.5306 42.6676 62.9226 42.6676 60.5226C42.6676 58.1226 43.7673 56.4906 45.7754 56.4906C47.7596 56.4906 48.8831 58.1226 48.8831 60.5226C48.8831 62.9226 47.7596 64.5306 45.7754 64.5306Z" fill="#1B1B1B"/>
<path d="M59.096 70.8666C60.9129 70.8666 62.4907 70.4346 63.5185 69.4746C64.427 68.6346 64.9768 67.4586 64.9768 65.7306V54.3546H61.8452V55.6506H61.7974C61.0563 54.6186 59.9327 54.0186 58.4028 54.0186C55.2951 54.0186 53.0957 56.3706 53.0957 60.0425C53.0957 63.7626 55.7732 65.9225 58.4984 65.9225C60.0522 65.9225 60.9846 65.2986 61.7017 64.4826H61.7735V65.8266C61.7735 67.5066 60.8889 68.3946 59.0482 68.3946C57.5422 68.3946 56.8489 67.7946 56.5859 67.0266H53.3587C53.6933 69.4266 55.7492 70.8666 59.096 70.8666ZM59.0482 63.3066C57.3748 63.3066 56.2752 62.0826 56.2752 59.9946C56.2752 57.9306 57.3748 56.6346 59.0243 56.6346C60.9846 56.6346 61.9408 58.1706 61.9408 59.9706C61.9408 61.7946 61.1041 63.3066 59.0482 63.3066Z" fill="#1B1B1B"/>
<path d="M72.8793 67.0266C76.6803 67.0266 79.286 64.1946 79.286 60.5226C79.286 56.8505 76.6803 54.0186 72.8793 54.0186C69.0783 54.0186 66.4726 56.8505 66.4726 60.5226C66.4726 64.1946 69.0783 67.0266 72.8793 67.0266ZM72.8793 64.5306C70.8712 64.5306 69.7716 62.9226 69.7716 60.5226C69.7716 58.1226 70.8712 56.4906 72.8793 56.4906C74.8635 56.4906 75.9871 58.1226 75.9871 60.5226C75.9871 62.9226 74.8635 64.5306 72.8793 64.5306Z" fill="#1B1B1B"/>
<path d="M182.008 52.3333C182.008 51.781 182.454 51.3333 183.005 51.3333H184.997C185.547 51.3333 185.993 51.781 185.993 52.3333C185.993 52.8855 185.547 53.3333 184.997 53.3333H183.005C182.454 53.3333 182.008 52.8855 182.008 52.3333Z" fill="#1B1B1B"/>
<path fill-rule="evenodd" clip-rule="evenodd" d="M99.0028 46C106.704 46 112.948 52.268 112.948 60C112.948 67.732 106.704 74 99.0028 74C91.3012 74 85.0579 67.732 85.0579 60C85.0579 52.268 91.3012 46 99.0028 46ZM98.4988 47.0476C96.9079 47.2724 95.393 48.5558 94.2171 50.7022C93.876 51.3248 93.5683 52.0126 93.3001 52.7553C94.899 52.3519 96.6555 52.1141 98.4988 52.0773V47.0476ZM92.1215 53.0916C92.455 52.0407 92.863 51.0739 93.3338 50.2145C93.9167 49.1504 94.6085 48.2316 95.388 47.5258C91.1495 48.7617 87.8086 52.1158 86.5777 56.371C87.2806 55.5885 88.1958 54.8939 89.2557 54.3087C90.1118 53.836 91.0748 53.4264 92.1215 53.0916ZM91.7866 54.2748C91.3848 55.88 91.1479 57.6434 91.1112 59.494H86.1013C86.3252 57.8968 87.6035 56.376 89.7416 55.1955C90.3617 54.853 91.0468 54.5441 91.7866 54.2748ZM92.1195 59.494C92.1611 57.4744 92.4508 55.5784 92.9299 53.9031C94.5986 53.4221 96.4871 53.1313 98.4988 53.0895V55.2756C97.7483 57.2043 96.2177 58.7408 94.2965 59.494H92.1195ZM91.1112 60.506H86.1013C86.3252 62.1032 87.6035 63.624 89.7416 64.8045C90.3617 65.147 91.0468 65.4559 91.7866 65.7252C91.3848 64.12 91.1479 62.3566 91.1112 60.506ZM92.9299 66.0969C92.4508 64.4216 92.1611 62.5256 92.1195 60.506H94.2965C96.2177 61.2592 97.7483 62.7957 98.4988 64.7244V66.9105C96.4871 66.8687 94.5986 66.5779 92.9299 66.0969ZM92.1215 66.9084C91.0748 66.5736 90.1118 66.164 89.2557 65.6913C88.1958 65.1061 87.2806 64.4115 86.5777 63.629C87.8086 67.8842 91.1495 71.2384 95.388 72.4741C94.6085 71.7684 93.9167 70.8496 93.3338 69.7855C92.863 68.9261 92.455 67.9593 92.1215 66.9084ZM98.4988 72.9524C96.9079 72.7276 95.393 71.4442 94.2171 69.2978C93.876 68.6752 93.5683 67.9873 93.3001 67.2447C94.899 67.6481 96.6555 67.8859 98.4988 67.9227V72.9524ZM102.618 72.4741C103.397 71.7684 104.089 70.8496 104.672 69.7855C105.142 68.9261 105.551 67.9593 105.884 66.9084C106.931 66.5736 107.894 66.164 108.75 65.6913C109.81 65.1061 110.725 64.4115 111.428 63.629C110.197 67.8842 106.856 71.2384 102.618 72.4741ZM104.706 67.2447C104.437 67.9873 104.129 68.6752 103.788 69.2978C102.613 71.4442 101.098 72.7276 99.5068 72.9524V67.9227C101.35 67.8859 103.107 67.6481 104.706 67.2447ZM106.219 65.7252C106.959 65.4559 107.644 65.147 108.264 64.8045C110.402 63.624 111.68 62.1032 111.904 60.506H106.894C106.858 62.3566 106.62 64.12 106.219 65.7252ZM105.886 60.506C105.844 62.5256 105.555 64.4216 105.075 66.0969C103.407 66.5779 101.518 66.8687 99.5068 66.9105V64.726C100.257 62.7966 101.788 61.2594 103.71 60.506H105.886ZM106.894 59.494H111.904C111.68 57.8968 110.402 56.376 108.264 55.1955C107.644 54.853 106.959 54.5441 106.219 54.2748C106.62 55.88 106.858 57.6434 106.894 59.494ZM105.075 53.9031C105.555 55.5784 105.844 57.4744 105.886 59.494H103.71C101.788 58.7406 100.257 57.2034 99.5068 55.2739V53.0895C101.518 53.1313 103.407 53.4221 105.075 53.9031ZM105.884 53.0916C106.931 53.4264 107.894 53.836 108.75 54.3087C109.81 54.8939 110.725 55.5885 111.428 56.371C110.197 52.1158 106.856 48.7617 102.618 47.5258C103.397 48.2316 104.089 49.1504 104.672 50.2145C105.142 51.0739 105.551 52.0407 105.884 53.0916ZM99.5068 47.0476C101.098 47.2724 102.613 48.5558 103.788 50.7022C104.129 51.3248 104.437 52.0126 104.706 52.7553C103.107 52.3519 101.35 52.1141 99.5068 52.0773V47.0476Z" fill="#1B1B1B"/>
</g>
<defs>
<clipPath id="clip0_2_293">
<rect width="152" height="28" fill="white" transform="translate(34 46)"/>
</clipPath>
</defs>
</svg>
