<svg width="139" height="26" viewBox="0 0 139 26" fill="none" xmlns="http://www.w3.org/2000/svg">
<path d="M8.92821 25.5C16.602 25.5 21.2506 20.7881 21.2506 12.9756C21.2506 5.1875 16.602 0.5 9.00199 0.5H0V25.5H8.92821ZM5.32495 20.9712V5.02881H8.71914C13.4415 5.02881 15.938 7.42139 15.938 12.9756C15.938 18.5542 13.4415 20.9712 8.70685 20.9712H5.32495Z" fill="#1B1B1B"/>
<path d="M30.5201 0.5H25.1951V25.5H30.5201V0.5Z" fill="#1B1B1B"/>
<path d="M33.9419 4.85791H41.6527V25.5H46.9161V4.85791H54.6268V0.5H33.9419V4.85791Z" fill="#1B1B1B"/>
<path d="M59.2631 25.5L61.1324 19.7993H70.2205L72.0897 25.5H77.7959L69.1137 0.5H62.2515L53.5569 25.5H59.2631ZM62.4851 15.6733L65.5842 6.21289H65.781L68.88 15.6733H62.4851Z" fill="#1B1B1B"/>
<rect x="74.1333" y="5.09912" width="64.8667" height="20.6961" fill="#3F29B0"/>
<path d="M83.5323 25.4791C86.2946 25.4791 88.5164 24.2274 88.5164 21.2769V9.50475H86.805V11.3227H86.6249C86.2345 10.7267 85.5139 9.35573 83.2621 9.35573C80.3497 9.35573 78.3381 11.6506 78.3381 15.1673C78.3381 18.7437 80.4398 20.7703 83.2321 20.7703C85.4839 20.7703 86.2045 19.4589 86.5948 18.8331H86.745V21.1577C86.745 23.0651 85.3938 23.9294 83.5323 23.9294C81.4381 23.9294 80.7025 22.8341 80.2296 22.2008L78.8185 23.1843C79.5391 24.3839 80.9577 25.4791 83.5323 25.4791ZM83.4723 19.1907C81.2505 19.1907 80.1095 17.5217 80.1095 15.1375C80.1095 12.8129 81.2204 10.9353 83.4723 10.9353C85.634 10.9353 86.775 12.6639 86.775 15.1375C86.775 17.6707 85.604 19.1907 83.4723 19.1907Z" fill="white"/>
<path d="M91.7591 20.9491H93.5305V13.707C93.5305 12.1572 94.7615 11.0247 96.4429 11.0247C96.9158 11.0247 97.4037 11.1141 97.5238 11.1439V9.35573C97.3211 9.34083 96.8557 9.32593 96.593 9.32593C95.2119 9.32593 94.0109 10.1008 93.5906 11.2333H93.4705V9.50475H91.7591V20.9491Z" fill="white"/>
<path d="M103.957 21.1875C107.079 21.1875 109.181 18.8331 109.181 15.2865C109.181 11.7102 107.079 9.35573 103.957 9.35573C100.834 9.35573 98.7323 11.7102 98.7323 15.2865C98.7323 18.8331 100.834 21.1875 103.957 21.1875ZM103.957 19.6079C101.585 19.6079 100.504 17.5813 100.504 15.2865C100.504 12.9917 101.585 10.9353 103.957 10.9353C106.328 10.9353 107.409 12.9917 107.409 15.2865C107.409 17.5813 106.328 19.6079 103.957 19.6079Z" fill="white"/>
<path d="M119.151 16.27C119.151 18.4158 117.499 19.3993 116.178 19.3993C114.707 19.3993 113.656 18.3264 113.656 16.6575V9.50475H111.885V16.7767C111.885 19.6973 113.446 21.0981 115.608 21.0981C117.349 21.0981 118.49 20.1742 119.031 19.0119H119.151V20.9491H120.922V9.50475H119.151V16.27Z" fill="white"/>
<path d="M124.167 25.5958H125.938V19.1907H126.088C126.479 19.8166 127.229 21.1875 129.451 21.1875C132.333 21.1875 134.345 18.8927 134.345 15.2567C134.345 11.6506 132.333 9.35573 129.421 9.35573C127.169 9.35573 126.479 10.7267 126.088 11.3227H125.878V9.50475H124.167V25.5958ZM125.908 15.2269C125.908 12.6639 127.049 10.9353 129.211 10.9353C131.463 10.9353 132.574 12.8129 132.574 15.2269C132.574 17.6707 131.433 19.6079 129.211 19.6079C127.079 19.6079 125.908 17.8198 125.908 15.2269Z" fill="white"/>
</svg>
