<svg width="40" height="40" viewBox="0 0 40 40" fill="none" xmlns="http://www.w3.org/2000/svg">
<rect x="0.5" y="0.5" width="39" height="39" rx="19.5" stroke="#E2E2E2"/>
<path d="M13 26.288L13.336 23.792C14.072 23.856 14.656 23.736 15.088 23.432C15.52 23.112 15.808 22.672 15.952 22.112C16.112 21.536 16.152 20.888 16.072 20.168H13V14H18.928V20.408C18.928 22.504 18.432 24.088 17.44 25.16C16.448 26.232 14.968 26.608 13 26.288ZM21.04 26.288L21.376 23.792C22.112 23.856 22.696 23.736 23.128 23.432C23.56 23.112 23.848 22.672 23.992 22.112C24.152 21.536 24.192 20.888 24.112 20.168H21.04V14H26.968V20.408C26.968 22.504 26.472 24.088 25.48 25.16C24.488 26.232 23.008 26.608 21.04 26.288Z" fill="#4328B7"/>
</svg>
