<svg width="20" height="20" viewBox="0 0 20 20" fill="none" xmlns="http://www.w3.org/2000/svg">
<path d="M18.0375 6.44167C18.0491 6.61345 18.0491 6.78523 18.0491 6.95859C18.0491 12.2411 14.0936 18.3333 6.8606 18.3333V18.3302C4.72396 18.3333 2.63171 17.7111 0.833008 16.5379C1.14369 16.5759 1.45593 16.5949 1.76895 16.5957C3.53962 16.5973 5.25968 15.9933 6.6527 14.8811C4.97002 14.8486 3.49446 13.7332 2.97899 12.1049C3.56843 12.2205 4.17579 12.1967 4.75433 12.036C2.91981 11.6592 1.59999 10.0206 1.59999 8.11752V8.06686C2.1466 8.37638 2.75863 8.54816 3.38467 8.56716C1.65683 7.39319 1.12423 5.05634 2.16763 3.22929C4.16411 5.72684 7.10977 7.24516 10.2719 7.40586C9.95499 6.01736 10.3879 4.56237 11.4095 3.58631C12.9933 2.07273 15.4842 2.15031 16.973 3.75967C17.8537 3.58314 18.6978 3.25462 19.4702 2.78915C19.1766 3.71455 18.5623 4.50062 17.7416 5.00013C18.521 4.90672 19.2825 4.69457 19.9997 4.3708C19.4717 5.17508 18.8068 5.87566 18.0375 6.44167Z" fill="#1B1B1B"/>
</svg>
