<svg width="24" height="24" viewBox="0 0 24 24" fill="none" xmlns="http://www.w3.org/2000/svg">
<path fill-rule="evenodd" clip-rule="evenodd" d="M12 3C12.9405 3 13.9052 3.02475 14.8402 3.06525L15.9446 3.11925L17.0017 3.18338L17.9917 3.252L18.8959 3.324C19.8772 3.40081 20.8005 3.82907 21.5035 4.53342C22.2065 5.23777 22.6441 6.17311 22.7393 7.17487L22.7833 7.653L22.8658 8.67675C22.9428 9.73762 23 10.8941 23 12C23 13.1059 22.9428 14.2624 22.8658 15.3233L22.7833 16.347C22.769 16.5113 22.7547 16.6699 22.7393 16.8251C22.644 17.8271 22.2063 18.7625 21.5031 19.4669C20.7999 20.1713 19.8763 20.5994 18.8948 20.676L17.9928 20.7469L17.0028 20.8166L15.9446 20.8807L14.8402 20.9347C13.894 20.9768 12.9471 20.9986 12 21C11.0529 20.9986 10.106 20.9768 9.1598 20.9347L8.0554 20.8807L6.9983 20.8166L6.0083 20.7469L5.1041 20.676C4.12285 20.5992 3.19951 20.1709 2.49652 19.4666C1.79353 18.7622 1.35593 17.8269 1.2607 16.8251L1.2167 16.347L1.1342 15.3233C1.05009 14.2175 1.00533 13.109 1 12C1 10.8941 1.0572 9.73762 1.1342 8.67675L1.2167 7.653C1.231 7.48875 1.2453 7.33012 1.2607 7.17487C1.35589 6.17329 1.79334 5.23809 2.4961 4.53376C3.19886 3.82943 4.12194 3.40107 5.103 3.324L6.0061 3.252L6.9961 3.18338L8.0543 3.11925L9.1587 3.06525C10.1053 3.02321 11.0526 3.00146 12 3ZM9.8 9.27187V14.7281C9.8 15.2479 10.35 15.5719 10.79 15.3131L15.41 12.585C15.5105 12.5258 15.594 12.4406 15.6521 12.3379C15.7102 12.2352 15.7407 12.1186 15.7407 12C15.7407 11.8814 15.7102 11.7648 15.6521 11.6621C15.594 11.5594 15.5105 11.4742 15.41 11.415L10.79 8.688C10.6896 8.62874 10.5758 8.59755 10.4599 8.59757C10.344 8.59759 10.2302 8.62881 10.1298 8.68811C10.0295 8.7474 9.94616 8.83268 9.88826 8.93535C9.83037 9.03802 9.79993 9.15448 9.8 9.273" fill="#1B1B1B"/>
</svg>
